STARTFONT 2.1
COMMENT
COMMENT Converted from OpenType font "EncodeSans-VariableFont_wdth,wght.ttf" by "otf2bdf 3.0".
COMMENT
FONT -FreeType-Encode Sans Condensed Thin-Medium-R-Normal--15-150-72-72-P-59-ISO10646-1
SIZE 15 72 72
FONTBOUNDINGBOX 18 19 -2 -3
STARTPROPERTIES 19
FOUNDRY "FreeType"
FAMILY_NAME "Encode Sans Condensed Thin"
WEIGHT_NAME "Medium"
SLANT "R"
SETWIDTH_NAME "Normal"
ADD_STYLE_NAME ""
PIXEL_SIZE 15
POINT_SIZE 150
RESOLUTION_X 72
RESOLUTION_Y 72
SPACING "P"
AVERAGE_WIDTH 59
CHARSET_REGISTRY "ISO10646"
CHARSET_ENCODING "1"
FONT_ASCENT 15
FONT_DESCENT 3
COPYRIGHT "Copyright 2020 The Encode Project Authors (https://github.com/thundernixon/Encode-Sans), with Reserved Font Name 'Encode Sans'."
_OTF_FONTFILE "EncodeSans-VariableFont_wdth,wght.ttf"
_OTF_PSNAME "EncodeSans-CondensedThin"
ENDPROPERTIES
CHARS 687
STARTCHAR 0000
ENCODING 0
SWIDTH 0 0
DWIDTH 0 0
BBX 0 0 0 0
BITMAP
ENDCHAR
STARTCHAR 000D
ENCODING 13
SWIDTH 200 0
DWIDTH 3 0
BBX 0 0 0 0
BITMAP
ENDCHAR
STARTCHAR 0020
ENCODING 32
SWIDTH 200 0
DWIDTH 3 0
BBX 0 0 0 0
BITMAP
ENDCHAR
STARTCHAR 0021
ENCODING 33
SWIDTH 200 0
DWIDTH 3 0
BBX 1 11 1 0
BITMAP
80
80
80
80
80
80
80
80
80
00
80
ENDCHAR
STARTCHAR 0022
ENCODING 34
SWIDTH 266 0
DWIDTH 4 0
BBX 2 5 1 7
BITMAP
C0
C0
C0
C0
C0
ENDCHAR
STARTCHAR 0023
ENCODING 35
SWIDTH 533 0
DWIDTH 8 0
BBX 6 11 1 0
BITMAP
48
48
48
EC
50
50
50
FC
50
50
50
ENDCHAR
STARTCHAR 0024
ENCODING 36
SWIDTH 466 0
DWIDTH 7 0
BBX 5 15 1 -2
BITMAP
20
20
D8
80
80
80
80
70
08
08
08
08
D0
20
20
ENDCHAR
STARTCHAR 0025
ENCODING 37
SWIDTH 800 0
DWIDTH 12 0
BBX 10 11 1 0
BITMAP
E200
9200
9400
9400
9580
9A40
6A40
0C40
1240
1240
1380
ENDCHAR
STARTCHAR 0026
ENCODING 38
SWIDTH 600 0
DWIDTH 9 0
BBX 8 11 1 0
BITMAP
3C
40
40
40
40
62
92
8A
86
82
7D
ENDCHAR
STARTCHAR 0027
ENCODING 39
SWIDTH 200 0
DWIDTH 3 0
BBX 1 5 1 7
BITMAP
80
80
80
80
80
ENDCHAR
STARTCHAR 0028
ENCODING 40
SWIDTH 266 0
DWIDTH 4 0
BBX 3 15 1 -3
BITMAP
60
40
40
80
80
80
80
80
80
80
80
80
80
40
60
ENDCHAR
STARTCHAR 0029
ENCODING 41
SWIDTH 266 0
DWIDTH 4 0
BBX 3 15 0 -3
BITMAP
C0
40
20
20
20
20
20
20
20
20
20
20
20
40
C0
ENDCHAR
STARTCHAR 002A
ENCODING 42
SWIDTH 400 0
DWIDTH 6 0
BBX 6 5 0 7
BITMAP
10
90
6C
30
48
ENDCHAR
STARTCHAR 002B
ENCODING 43
SWIDTH 533 0
DWIDTH 8 0
BBX 6 6 1 3
BITMAP
20
20
20
FC
20
20
ENDCHAR
STARTCHAR 002C
ENCODING 44
SWIDTH 200 0
DWIDTH 3 0
BBX 1 3 1 -2
BITMAP
80
80
80
ENDCHAR
STARTCHAR 002D
ENCODING 45
SWIDTH 333 0
DWIDTH 5 0
BBX 3 1 1 4
BITMAP
E0
ENDCHAR
STARTCHAR 002E
ENCODING 46
SWIDTH 200 0
DWIDTH 3 0
BBX 1 1 1 0
BITMAP
80
ENDCHAR
STARTCHAR 002F
ENCODING 47
SWIDTH 200 0
DWIDTH 3 0
BBX 3 14 0 -2
BITMAP
20
20
20
20
20
40
40
40
40
40
80
80
80
80
ENDCHAR
STARTCHAR 0030
ENCODING 48
SWIDTH 533 0
DWIDTH 8 0
BBX 6 11 1 0
BITMAP
78
84
84
84
84
84
84
84
84
84
78
ENDCHAR
STARTCHAR 0031
ENCODING 49
SWIDTH 266 0
DWIDTH 4 0
BBX 3 11 0 0
BITMAP
60
A0
20
20
20
20
20
20
20
20
20
ENDCHAR
STARTCHAR 0032
ENCODING 50
SWIDTH 400 0
DWIDTH 6 0
BBX 6 11 0 0
BITMAP
F0
08
08
08
08
10
10
20
20
40
FC
ENDCHAR
STARTCHAR 0033
ENCODING 51
SWIDTH 400 0
DWIDTH 6 0
BBX 6 11 0 0
BITMAP
F8
04
04
04
08
38
04
04
04
04
F8
ENDCHAR
STARTCHAR 0034
ENCODING 52
SWIDTH 466 0
DWIDTH 7 0
BBX 7 11 0 0
BITMAP
08
10
10
20
24
44
44
FE
04
04
04
ENDCHAR
STARTCHAR 0035
ENCODING 53
SWIDTH 400 0
DWIDTH 6 0
BBX 5 11 1 0
BITMAP
F8
80
80
80
80
70
08
08
08
08
F0
ENDCHAR
STARTCHAR 0036
ENCODING 54
SWIDTH 466 0
DWIDTH 7 0
BBX 6 11 1 0
BITMAP
7C
80
80
80
80
F8
84
84
84
84
78
ENDCHAR
STARTCHAR 0037
ENCODING 55
SWIDTH 400 0
DWIDTH 6 0
BBX 5 11 0 0
BITMAP
F8
08
08
08
10
10
10
20
20
40
40
ENDCHAR
STARTCHAR 0038
ENCODING 56
SWIDTH 533 0
DWIDTH 8 0
BBX 6 11 1 0
BITMAP
78
84
84
84
48
70
8C
84
84
84
78
ENDCHAR
STARTCHAR 0039
ENCODING 57
SWIDTH 466 0
DWIDTH 7 0
BBX 6 11 0 0
BITMAP
78
84
84
84
84
7C
04
04
04
04
F8
ENDCHAR
STARTCHAR 003A
ENCODING 58
SWIDTH 200 0
DWIDTH 3 0
BBX 1 8 1 0
BITMAP
80
00
00
00
00
00
00
80
ENDCHAR
STARTCHAR 003B
ENCODING 59
SWIDTH 200 0
DWIDTH 3 0
BBX 1 10 1 -2
BITMAP
80
00
00
00
00
00
00
80
80
80
ENDCHAR
STARTCHAR 003C
ENCODING 60
SWIDTH 533 0
DWIDTH 8 0
BBX 6 5 1 3
BITMAP
1C
60
C0
30
0C
ENDCHAR
STARTCHAR 003D
ENCODING 61
SWIDTH 533 0
DWIDTH 8 0
BBX 6 3 1 4
BITMAP
FC
00
FC
ENDCHAR
STARTCHAR 003E
ENCODING 62
SWIDTH 533 0
DWIDTH 8 0
BBX 6 5 1 3
BITMAP
C0
30
0C
30
C0
ENDCHAR
STARTCHAR 003F
ENCODING 63
SWIDTH 400 0
DWIDTH 6 0
BBX 5 11 0 0
BITMAP
F8
08
08
08
08
30
20
20
20
00
20
ENDCHAR
STARTCHAR 0040
ENCODING 64
SWIDTH 800 0
DWIDTH 12 0
BBX 10 14 1 -3
BITMAP
3F00
4080
8080
BE40
8240
8240
8E40
9240
A240
A240
9D80
8000
4000
3E00
ENDCHAR
STARTCHAR 0041
ENCODING 65
SWIDTH 533 0
DWIDTH 8 0
BBX 8 11 0 0
BITMAP
08
18
14
24
24
22
7E
42
41
81
81
ENDCHAR
STARTCHAR 0042
ENCODING 66
SWIDTH 533 0
DWIDTH 8 0
BBX 7 11 1 0
BITMAP
F8
84
82
84
84
F8
84
82
82
82
FC
ENDCHAR
STARTCHAR 0043
ENCODING 67
SWIDTH 466 0
DWIDTH 7 0
BBX 6 11 1 0
BITMAP
7C
80
80
80
80
80
80
80
80
80
7C
ENDCHAR
STARTCHAR 0044
ENCODING 68
SWIDTH 600 0
DWIDTH 9 0
BBX 7 11 1 0
BITMAP
F8
84
82
82
82
82
82
82
82
84
F8
ENDCHAR
STARTCHAR 0045
ENCODING 69
SWIDTH 466 0
DWIDTH 7 0
BBX 6 11 1 0
BITMAP
FC
80
80
80
80
F8
80
80
80
80
FC
ENDCHAR
STARTCHAR 0046
ENCODING 70
SWIDTH 466 0
DWIDTH 7 0
BBX 6 11 1 0
BITMAP
FC
80
80
80
80
F8
80
80
80
80
80
ENDCHAR
STARTCHAR 0047
ENCODING 71
SWIDTH 533 0
DWIDTH 8 0
BBX 6 11 1 0
BITMAP
7C
80
80
80
80
80
84
84
84
84
7C
ENDCHAR
STARTCHAR 0048
ENCODING 72
SWIDTH 600 0
DWIDTH 9 0
BBX 7 11 1 0
BITMAP
82
82
82
82
82
FE
82
82
82
82
82
ENDCHAR
STARTCHAR 0049
ENCODING 73
SWIDTH 200 0
DWIDTH 3 0
BBX 1 11 1 0
BITMAP
80
80
80
80
80
80
80
80
80
80
80
ENDCHAR
STARTCHAR 004A
ENCODING 74
SWIDTH 200 0
DWIDTH 3 0
BBX 2 14 0 -3
BITMAP
40
40
40
40
40
40
40
40
40
40
40
40
80
80
ENDCHAR
STARTCHAR 004B
ENCODING 75
SWIDTH 533 0
DWIDTH 8 0
BBX 7 11 1 0
BITMAP
82
84
88
90
A0
E0
90
88
88
84
82
ENDCHAR
STARTCHAR 004C
ENCODING 76
SWIDTH 466 0
DWIDTH 7 0
BBX 6 11 1 0
BITMAP
80
80
80
80
80
80
80
80
80
80
FC
ENDCHAR
STARTCHAR 004D
ENCODING 77
SWIDTH 733 0
DWIDTH 11 0
BBX 9 11 1 0
BITMAP
8080
C080
C180
A180
A280
A280
9480
9480
8880
8880
8080
ENDCHAR
STARTCHAR 004E
ENCODING 78
SWIDTH 600 0
DWIDTH 9 0
BBX 7 11 1 0
BITMAP
82
C2
C2
A2
92
92
8A
8A
86
86
82
ENDCHAR
STARTCHAR 004F
ENCODING 79
SWIDTH 600 0
DWIDTH 9 0
BBX 7 11 1 0
BITMAP
7C
84
82
82
82
82
82
82
82
84
78
ENDCHAR
STARTCHAR 0050
ENCODING 80
SWIDTH 533 0
DWIDTH 8 0
BBX 6 11 1 0
BITMAP
F8
84
84
84
84
84
F8
80
80
80
80
ENDCHAR
STARTCHAR 0051
ENCODING 81
SWIDTH 600 0
DWIDTH 9 0
BBX 7 12 1 -1
BITMAP
7C
84
82
82
82
82
82
82
82
84
68
1E
ENDCHAR
STARTCHAR 0052
ENCODING 82
SWIDTH 533 0
DWIDTH 8 0
BBX 7 11 1 0
BITMAP
F8
84
84
84
84
F8
90
88
88
84
82
ENDCHAR
STARTCHAR 0053
ENCODING 83
SWIDTH 466 0
DWIDTH 7 0
BBX 5 11 1 0
BITMAP
F8
80
80
80
80
70
08
08
08
08
F0
ENDCHAR
STARTCHAR 0054
ENCODING 84
SWIDTH 466 0
DWIDTH 7 0
BBX 7 11 0 0
BITMAP
FE
10
10
10
10
10
10
10
10
10
10
ENDCHAR
STARTCHAR 0055
ENCODING 85
SWIDTH 600 0
DWIDTH 9 0
BBX 7 11 1 0
BITMAP
82
82
82
82
82
82
82
82
82
82
7C
ENDCHAR
STARTCHAR 0056
ENCODING 86
SWIDTH 533 0
DWIDTH 8 0
BBX 8 11 0 0
BITMAP
81
81
41
42
42
22
24
24
14
18
08
ENDCHAR
STARTCHAR 0057
ENCODING 87
SWIDTH 866 0
DWIDTH 13 0
BBX 13 11 0 0
BITMAP
8208
4208
4510
4510
4510
2490
28A0
28A0
28A0
1040
1040
ENDCHAR
STARTCHAR 0058
ENCODING 88
SWIDTH 533 0
DWIDTH 8 0
BBX 8 11 0 0
BITMAP
81
42
24
24
18
10
18
24
24
42
81
ENDCHAR
STARTCHAR 0059
ENCODING 89
SWIDTH 466 0
DWIDTH 7 0
BBX 7 11 0 0
BITMAP
82
42
44
24
28
10
10
10
10
10
10
ENDCHAR
STARTCHAR 005A
ENCODING 90
SWIDTH 466 0
DWIDTH 7 0
BBX 7 11 0 0
BITMAP
FE
04
04
08
08
10
20
20
40
40
FE
ENDCHAR
STARTCHAR 005B
ENCODING 91
SWIDTH 266 0
DWIDTH 4 0
BBX 3 15 1 -3
BITMAP
E0
80
80
80
80
80
80
80
80
80
80
80
80
80
E0
ENDCHAR
STARTCHAR 005C
ENCODING 92
SWIDTH 200 0
DWIDTH 3 0
BBX 3 14 0 -2
BITMAP
80
80
80
80
40
40
40
40
40
20
20
20
20
20
ENDCHAR
STARTCHAR 005D
ENCODING 93
SWIDTH 266 0
DWIDTH 4 0
BBX 3 15 0 -3
BITMAP
E0
20
20
20
20
20
20
20
20
20
20
20
20
20
E0
ENDCHAR
STARTCHAR 005E
ENCODING 94
SWIDTH 533 0
DWIDTH 8 0
BBX 6 5 1 6
BITMAP
20
50
48
48
8C
ENDCHAR
STARTCHAR 005F
ENCODING 95
SWIDTH 466 0
DWIDTH 7 0
BBX 5 1 1 -1
BITMAP
F8
ENDCHAR
STARTCHAR 0060
ENCODING 96
SWIDTH 400 0
DWIDTH 6 0
BBX 2 3 3 9
BITMAP
80
40
40
ENDCHAR
STARTCHAR 0061
ENCODING 97
SWIDTH 400 0
DWIDTH 6 0
BBX 4 8 1 0
BITMAP
F0
10
10
30
D0
90
90
F0
ENDCHAR
STARTCHAR 0062
ENCODING 98
SWIDTH 466 0
DWIDTH 7 0
BBX 5 12 1 0
BITMAP
80
80
80
80
F0
88
88
88
88
88
88
F0
ENDCHAR
STARTCHAR 0063
ENCODING 99
SWIDTH 333 0
DWIDTH 5 0
BBX 4 8 1 0
BITMAP
70
80
80
80
80
80
80
70
ENDCHAR
STARTCHAR 0064
ENCODING 100
SWIDTH 466 0
DWIDTH 7 0
BBX 5 12 1 0
BITMAP
08
08
08
08
78
88
88
88
88
88
88
78
ENDCHAR
STARTCHAR 0065
ENCODING 101
SWIDTH 400 0
DWIDTH 6 0
BBX 5 8 1 0
BITMAP
F0
88
88
F8
80
80
80
78
ENDCHAR
STARTCHAR 0066
ENCODING 102
SWIDTH 266 0
DWIDTH 4 0
BBX 5 12 0 0
BITMAP
38
40
40
40
F0
40
40
40
40
40
40
40
ENDCHAR
STARTCHAR 0067
ENCODING 103
SWIDTH 466 0
DWIDTH 7 0
BBX 5 11 1 -3
BITMAP
78
88
88
88
88
88
88
78
08
08
F0
ENDCHAR
STARTCHAR 0068
ENCODING 104
SWIDTH 466 0
DWIDTH 7 0
BBX 5 12 1 0
BITMAP
80
80
80
80
F8
88
88
88
88
88
88
88
ENDCHAR
STARTCHAR 0069
ENCODING 105
SWIDTH 200 0
DWIDTH 3 0
BBX 1 11 1 0
BITMAP
80
00
00
80
80
80
80
80
80
80
80
ENDCHAR
STARTCHAR 006A
ENCODING 106
SWIDTH 200 0
DWIDTH 3 0
BBX 2 14 0 -3
BITMAP
40
00
00
40
40
40
40
40
40
40
40
40
80
80
ENDCHAR
STARTCHAR 006B
ENCODING 107
SWIDTH 400 0
DWIDTH 6 0
BBX 5 12 1 0
BITMAP
80
80
80
80
88
90
A0
E0
A0
90
90
88
ENDCHAR
STARTCHAR 006C
ENCODING 108
SWIDTH 200 0
DWIDTH 3 0
BBX 1 12 1 0
BITMAP
80
80
80
80
80
80
80
80
80
80
80
80
ENDCHAR
STARTCHAR 006D
ENCODING 109
SWIDTH 733 0
DWIDTH 11 0
BBX 9 8 1 0
BITMAP
F780
8880
8880
8880
8880
8880
8880
8880
ENDCHAR
STARTCHAR 006E
ENCODING 110
SWIDTH 466 0
DWIDTH 7 0
BBX 5 8 1 0
BITMAP
F8
88
88
88
88
88
88
88
ENDCHAR
STARTCHAR 006F
ENCODING 111
SWIDTH 466 0
DWIDTH 7 0
BBX 5 8 1 0
BITMAP
70
88
88
88
88
88
88
70
ENDCHAR
STARTCHAR 0070
ENCODING 112
SWIDTH 466 0
DWIDTH 7 0
BBX 5 11 1 -3
BITMAP
F0
88
88
88
88
88
88
F0
80
80
80
ENDCHAR
STARTCHAR 0071
ENCODING 113
SWIDTH 466 0
DWIDTH 7 0
BBX 5 11 1 -3
BITMAP
78
88
88
88
88
88
88
78
08
08
08
ENDCHAR
STARTCHAR 0072
ENCODING 114
SWIDTH 266 0
DWIDTH 4 0
BBX 3 8 1 0
BITMAP
E0
80
80
80
80
80
80
80
ENDCHAR
STARTCHAR 0073
ENCODING 115
SWIDTH 333 0
DWIDTH 5 0
BBX 4 8 1 0
BITMAP
F0
80
80
C0
30
10
10
E0
ENDCHAR
STARTCHAR 0074
ENCODING 116
SWIDTH 266 0
DWIDTH 4 0
BBX 4 11 0 0
BITMAP
40
40
40
F0
40
40
40
40
40
40
30
ENDCHAR
STARTCHAR 0075
ENCODING 117
SWIDTH 466 0
DWIDTH 7 0
BBX 5 8 1 0
BITMAP
88
88
88
88
88
88
88
F8
ENDCHAR
STARTCHAR 0076
ENCODING 118
SWIDTH 400 0
DWIDTH 6 0
BBX 6 8 0 0
BITMAP
84
84
44
48
48
28
30
10
ENDCHAR
STARTCHAR 0077
ENCODING 119
SWIDTH 733 0
DWIDTH 11 0
BBX 10 8 0 0
BITMAP
8440
4C40
4A40
4A40
4A80
3180
3180
2100
ENDCHAR
STARTCHAR 0078
ENCODING 120
SWIDTH 400 0
DWIDTH 6 0
BBX 6 8 0 0
BITMAP
84
48
30
20
30
50
48
84
ENDCHAR
STARTCHAR 0079
ENCODING 121
SWIDTH 400 0
DWIDTH 6 0
BBX 6 11 0 -3
BITMAP
84
84
44
48
48
28
30
10
10
20
20
ENDCHAR
STARTCHAR 007A
ENCODING 122
SWIDTH 400 0
DWIDTH 6 0
BBX 5 8 0 0
BITMAP
F8
08
10
10
20
40
40
F8
ENDCHAR
STARTCHAR 007B
ENCODING 123
SWIDTH 266 0
DWIDTH 4 0
BBX 5 15 0 -3
BITMAP
38
40
40
40
40
40
40
C0
40
40
40
40
40
40
38
ENDCHAR
STARTCHAR 007C
ENCODING 124
SWIDTH 200 0
DWIDTH 3 0
BBX 1 15 1 -3
BITMAP
80
80
80
80
80
80
80
80
80
80
80
80
80
80
80
ENDCHAR
STARTCHAR 007D
ENCODING 125
SWIDTH 266 0
DWIDTH 4 0
BBX 4 15 0 -3
BITMAP
E0
20
20
20
20
20
20
10
20
20
20
20
20
20
E0
ENDCHAR
STARTCHAR 007E
ENCODING 126
SWIDTH 533 0
DWIDTH 8 0
BBX 6 1 1 5
BITMAP
FC
ENDCHAR
STARTCHAR 00A0
ENCODING 160
SWIDTH 200 0
DWIDTH 3 0
BBX 0 0 0 0
BITMAP
ENDCHAR
STARTCHAR 00A1
ENCODING 161
SWIDTH 200 0
DWIDTH 3 0
BBX 1 11 1 -3
BITMAP
80
00
80
80
80
80
80
80
80
80
80
ENDCHAR
STARTCHAR 00A2
ENCODING 162
SWIDTH 333 0
DWIDTH 5 0
BBX 4 12 1 -2
BITMAP
20
20
50
80
80
80
80
80
80
50
20
20
ENDCHAR
STARTCHAR 00A3
ENCODING 163
SWIDTH 533 0
DWIDTH 8 0
BBX 6 11 1 0
BITMAP
3C
40
40
40
40
F8
40
40
40
40
FC
ENDCHAR
STARTCHAR 00A4
ENCODING 164
SWIDTH 533 0
DWIDTH 8 0
BBX 6 7 1 2
BITMAP
84
F8
88
88
88
F8
84
ENDCHAR
STARTCHAR 00A5
ENCODING 165
SWIDTH 533 0
DWIDTH 8 0
BBX 8 11 0 0
BITMAP
81
42
44
24
18
7C
10
10
7C
10
10
ENDCHAR
STARTCHAR 00A6
ENCODING 166
SWIDTH 200 0
DWIDTH 3 0
BBX 1 15 1 -3
BITMAP
80
80
80
80
80
80
00
00
00
80
80
80
80
80
80
ENDCHAR
STARTCHAR 00A7
ENCODING 167
SWIDTH 400 0
DWIDTH 6 0
BBX 4 11 1 0
BITMAP
F0
80
80
C0
B0
90
D0
30
10
10
F0
ENDCHAR
STARTCHAR 00A8
ENCODING 168
SWIDTH 400 0
DWIDTH 6 0
BBX 3 1 3 10
BITMAP
A0
ENDCHAR
STARTCHAR 00A9
ENCODING 169
SWIDTH 866 0
DWIDTH 13 0
BBX 11 11 1 0
BITMAP
3F80
4040
8E40
9020
9020
A020
9020
9020
8E40
40C0
3F00
ENDCHAR
STARTCHAR 00AA
ENCODING 170
SWIDTH 333 0
DWIDTH 5 0
BBX 5 7 0 4
BITMAP
F0
08
08
78
88
98
60
ENDCHAR
STARTCHAR 00AB
ENCODING 171
SWIDTH 333 0
DWIDTH 5 0
BBX 4 6 1 1
BITMAP
50
A0
A0
A0
A0
50
ENDCHAR
STARTCHAR 00AC
ENCODING 172
SWIDTH 600 0
DWIDTH 9 0
BBX 7 5 1 1
BITMAP
FE
02
02
02
02
ENDCHAR
STARTCHAR 00AD
ENCODING 173
SWIDTH 333 0
DWIDTH 5 0
BBX 3 1 1 4
BITMAP
E0
ENDCHAR
STARTCHAR 00AE
ENCODING 174
SWIDTH 733 0
DWIDTH 11 0
BBX 9 9 1 2
BITMAP
3E00
4100
9C80
9280
9C80
9480
9280
4100
3E00
ENDCHAR
STARTCHAR 00AF
ENCODING 175
SWIDTH 400 0
DWIDTH 6 0
BBX 3 1 3 10
BITMAP
E0
ENDCHAR
STARTCHAR 00B0
ENCODING 176
SWIDTH 466 0
DWIDTH 7 0
BBX 5 5 1 6
BITMAP
70
88
88
88
70
ENDCHAR
STARTCHAR 00B1
ENCODING 177
SWIDTH 533 0
DWIDTH 8 0
BBX 6 8 1 0
BITMAP
20
20
FC
20
20
20
00
FC
ENDCHAR
STARTCHAR 00B2
ENCODING 178
SWIDTH 333 0
DWIDTH 5 0
BBX 3 7 1 5
BITMAP
E0
20
20
20
40
80
E0
ENDCHAR
STARTCHAR 00B3
ENCODING 179
SWIDTH 333 0
DWIDTH 5 0
BBX 3 7 1 5
BITMAP
E0
20
20
C0
20
20
E0
ENDCHAR
STARTCHAR 00B4
ENCODING 180
SWIDTH 400 0
DWIDTH 6 0
BBX 2 3 4 9
BITMAP
40
80
80
ENDCHAR
STARTCHAR 00B5
ENCODING 181
SWIDTH 466 0
DWIDTH 7 0
BBX 5 11 1 -3
BITMAP
88
88
88
88
88
88
88
F8
80
80
80
ENDCHAR
STARTCHAR 00B6
ENCODING 182
SWIDTH 533 0
DWIDTH 8 0
BBX 6 11 1 0
BITMAP
74
F4
F4
F4
F4
F4
74
14
14
14
14
ENDCHAR
STARTCHAR 00B7
ENCODING 183
SWIDTH 200 0
DWIDTH 3 0
BBX 1 1 1 4
BITMAP
80
ENDCHAR
STARTCHAR 00B8
ENCODING 184
SWIDTH 400 0
DWIDTH 6 0
BBX 3 3 3 -3
BITMAP
40
20
E0
ENDCHAR
STARTCHAR 00B9
ENCODING 185
SWIDTH 333 0
DWIDTH 5 0
BBX 4 7 1 5
BITMAP
40
C0
40
40
40
40
F0
ENDCHAR
STARTCHAR 00BA
ENCODING 186
SWIDTH 400 0
DWIDTH 6 0
BBX 4 7 1 4
BITMAP
F0
90
90
90
90
90
60
ENDCHAR
STARTCHAR 00BB
ENCODING 187
SWIDTH 333 0
DWIDTH 5 0
BBX 3 6 1 1
BITMAP
A0
A0
60
A0
A0
A0
ENDCHAR
STARTCHAR 00BC
ENCODING 188
SWIDTH 800 0
DWIDTH 12 0
BBX 10 13 1 -1
BITMAP
4100
C200
4200
4400
4400
4400
4880
B900
1140
1240
13C0
2040
2040
ENDCHAR
STARTCHAR 00BD
ENCODING 189
SWIDTH 800 0
DWIDTH 12 0
BBX 10 13 1 -1
BITMAP
4100
C200
4200
4400
4400
4780
4840
B840
1040
1080
1100
2100
23C0
ENDCHAR
STARTCHAR 00BE
ENCODING 190
SWIDTH 800 0
DWIDTH 12 0
BBX 10 13 1 -1
BITMAP
E100
2200
2200
E400
1400
1400
2880
C900
1140
1240
13C0
2040
2040
ENDCHAR
STARTCHAR 00BF
ENCODING 191
SWIDTH 400 0
DWIDTH 6 0
BBX 5 11 0 -3
BITMAP
10
00
10
10
10
20
40
80
80
80
78
ENDCHAR
STARTCHAR 00C0
ENCODING 192
SWIDTH 533 0
DWIDTH 8 0
BBX 8 14 0 0
BITMAP
10
08
00
08
18
14
24
24
22
7E
42
41
81
81
ENDCHAR
STARTCHAR 00C1
ENCODING 193
SWIDTH 533 0
DWIDTH 8 0
BBX 8 14 0 0
BITMAP
0C
08
00
08
18
14
24
24
22
7E
42
41
81
81
ENDCHAR
STARTCHAR 00C2
ENCODING 194
SWIDTH 533 0
DWIDTH 8 0
BBX 8 14 0 0
BITMAP
18
34
00
08
18
14
24
24
22
7E
42
41
81
81
ENDCHAR
STARTCHAR 00C3
ENCODING 195
SWIDTH 533 0
DWIDTH 8 0
BBX 8 14 0 0
BITMAP
3A
04
00
08
18
14
24
24
22
7E
42
41
81
81
ENDCHAR
STARTCHAR 00C4
ENCODING 196
SWIDTH 533 0
DWIDTH 8 0
BBX 8 14 0 0
BITMAP
24
00
00
08
18
14
24
24
22
7E
42
41
81
81
ENDCHAR
STARTCHAR 00C5
ENCODING 197
SWIDTH 533 0
DWIDTH 8 0
BBX 8 15 0 0
BITMAP
18
14
18
00
08
18
14
24
24
22
7E
42
41
81
81
ENDCHAR
STARTCHAR 00C6
ENCODING 198
SWIDTH 800 0
DWIDTH 12 0
BBX 11 11 0 0
BITMAP
0FE0
1400
1200
1200
2200
23E0
7E00
4200
4200
8200
83E0
ENDCHAR
STARTCHAR 00C7
ENCODING 199
SWIDTH 466 0
DWIDTH 7 0
BBX 6 14 1 -3
BITMAP
7C
80
80
80
80
80
80
80
80
80
6C
10
08
38
ENDCHAR
STARTCHAR 00C8
ENCODING 200
SWIDTH 466 0
DWIDTH 7 0
BBX 6 14 1 0
BITMAP
20
20
00
FC
80
80
80
80
F8
80
80
80
80
FC
ENDCHAR
STARTCHAR 00C9
ENCODING 201
SWIDTH 466 0
DWIDTH 7 0
BBX 6 14 1 0
BITMAP
10
10
00
FC
80
80
80
80
F8
80
80
80
80
FC
ENDCHAR
STARTCHAR 00CA
ENCODING 202
SWIDTH 466 0
DWIDTH 7 0
BBX 6 14 1 0
BITMAP
30
48
00
FC
80
80
80
80
F8
80
80
80
80
FC
ENDCHAR
STARTCHAR 00CB
ENCODING 203
SWIDTH 466 0
DWIDTH 7 0
BBX 6 14 1 0
BITMAP
48
00
00
FC
80
80
80
80
F8
80
80
80
80
FC
ENDCHAR
STARTCHAR 00CC
ENCODING 204
SWIDTH 200 0
DWIDTH 3 0
BBX 2 14 0 0
BITMAP
80
40
00
40
40
40
40
40
40
40
40
40
40
40
ENDCHAR
STARTCHAR 00CD
ENCODING 205
SWIDTH 200 0
DWIDTH 3 0
BBX 2 14 1 0
BITMAP
40
80
00
80
80
80
80
80
80
80
80
80
80
80
ENDCHAR
STARTCHAR 00CE
ENCODING 206
SWIDTH 200 0
DWIDTH 3 0
BBX 3 14 0 0
BITMAP
C0
A0
00
40
40
40
40
40
40
40
40
40
40
40
ENDCHAR
STARTCHAR 00CF
ENCODING 207
SWIDTH 200 0
DWIDTH 3 0
BBX 3 14 0 0
BITMAP
A0
00
00
40
40
40
40
40
40
40
40
40
40
40
ENDCHAR
STARTCHAR 00D0
ENCODING 208
SWIDTH 600 0
DWIDTH 9 0
BBX 8 11 0 0
BITMAP
7C
42
41
41
41
F1
41
41
41
42
7C
ENDCHAR
STARTCHAR 00D1
ENCODING 209
SWIDTH 600 0
DWIDTH 9 0
BBX 7 14 1 0
BITMAP
34
08
00
82
C2
C2
A2
92
92
8A
8A
86
86
82
ENDCHAR
STARTCHAR 00D2
ENCODING 210
SWIDTH 600 0
DWIDTH 9 0
BBX 7 14 1 0
BITMAP
20
10
00
7C
84
82
82
82
82
82
82
82
84
78
ENDCHAR
STARTCHAR 00D3
ENCODING 211
SWIDTH 600 0
DWIDTH 9 0
BBX 7 14 1 0
BITMAP
08
10
00
7C
84
82
82
82
82
82
82
82
84
78
ENDCHAR
STARTCHAR 00D4
ENCODING 212
SWIDTH 600 0
DWIDTH 9 0
BBX 7 14 1 0
BITMAP
30
28
00
7C
84
82
82
82
82
82
82
82
84
78
ENDCHAR
STARTCHAR 00D5
ENCODING 213
SWIDTH 600 0
DWIDTH 9 0
BBX 7 14 1 0
BITMAP
74
08
00
7C
84
82
82
82
82
82
82
82
84
78
ENDCHAR
STARTCHAR 00D6
ENCODING 214
SWIDTH 600 0
DWIDTH 9 0
BBX 7 14 1 0
BITMAP
28
00
00
7C
84
82
82
82
82
82
82
82
84
78
ENDCHAR
STARTCHAR 00D7
ENCODING 215
SWIDTH 466 0
DWIDTH 7 0
BBX 5 5 1 3
BITMAP
88
50
20
50
88
ENDCHAR
STARTCHAR 00D8
ENCODING 216
SWIDTH 600 0
DWIDTH 9 0
BBX 7 11 1 0
BITMAP
7E
84
86
8A
92
92
A2
A2
C2
84
F8
ENDCHAR
STARTCHAR 00D9
ENCODING 217
SWIDTH 600 0
DWIDTH 9 0
BBX 7 14 1 0
BITMAP
20
10
00
82
82
82
82
82
82
82
82
82
82
7C
ENDCHAR
STARTCHAR 00DA
ENCODING 218
SWIDTH 600 0
DWIDTH 9 0
BBX 7 14 1 0
BITMAP
08
10
00
82
82
82
82
82
82
82
82
82
82
7C
ENDCHAR
STARTCHAR 00DB
ENCODING 219
SWIDTH 600 0
DWIDTH 9 0
BBX 7 14 1 0
BITMAP
30
28
00
82
82
82
82
82
82
82
82
82
82
7C
ENDCHAR
STARTCHAR 00DC
ENCODING 220
SWIDTH 600 0
DWIDTH 9 0
BBX 7 14 1 0
BITMAP
28
00
00
82
82
82
82
82
82
82
82
82
82
7C
ENDCHAR
STARTCHAR 00DD
ENCODING 221
SWIDTH 466 0
DWIDTH 7 0
BBX 7 14 0 0
BITMAP
08
10
00
82
42
44
24
28
10
10
10
10
10
10
ENDCHAR
STARTCHAR 00DE
ENCODING 222
SWIDTH 533 0
DWIDTH 8 0
BBX 6 11 1 0
BITMAP
80
F0
88
84
84
84
84
84
F8
80
80
ENDCHAR
STARTCHAR 00DF
ENCODING 223
SWIDTH 533 0
DWIDTH 8 0
BBX 8 12 0 0
BITMAP
3E
22
41
41
CE
50
50
4C
43
41
41
5E
ENDCHAR
STARTCHAR 00E0
ENCODING 224
SWIDTH 400 0
DWIDTH 6 0
BBX 4 12 1 0
BITMAP
40
40
20
00
F0
10
10
30
D0
90
90
F0
ENDCHAR
STARTCHAR 00E1
ENCODING 225
SWIDTH 400 0
DWIDTH 6 0
BBX 4 12 1 0
BITMAP
10
20
20
00
F0
10
10
30
D0
90
90
F0
ENDCHAR
STARTCHAR 00E2
ENCODING 226
SWIDTH 400 0
DWIDTH 6 0
BBX 4 12 1 0
BITMAP
20
50
90
00
F0
10
10
30
D0
90
90
F0
ENDCHAR
STARTCHAR 00E3
ENCODING 227
SWIDTH 400 0
DWIDTH 6 0
BBX 4 11 1 0
BITMAP
F0
00
00
F0
10
10
30
D0
90
90
F0
ENDCHAR
STARTCHAR 00E4
ENCODING 228
SWIDTH 400 0
DWIDTH 6 0
BBX 4 11 1 0
BITMAP
90
00
00
F0
10
10
30
D0
90
90
F0
ENDCHAR
STARTCHAR 00E5
ENCODING 229
SWIDTH 400 0
DWIDTH 6 0
BBX 4 12 1 0
BITMAP
70
50
20
00
F0
10
10
30
D0
90
90
F0
ENDCHAR
STARTCHAR 00E6
ENCODING 230
SWIDTH 666 0
DWIDTH 10 0
BBX 9 8 1 0
BITMAP
F700
0880
0880
3F80
C800
8800
8800
F780
ENDCHAR
STARTCHAR 00E7
ENCODING 231
SWIDTH 333 0
DWIDTH 5 0
BBX 4 11 1 -3
BITMAP
70
80
80
80
80
80
80
50
20
10
70
ENDCHAR
STARTCHAR 00E8
ENCODING 232
SWIDTH 400 0
DWIDTH 6 0
BBX 5 12 1 0
BITMAP
40
40
20
00
F0
88
88
F8
80
80
80
78
ENDCHAR
STARTCHAR 00E9
ENCODING 233
SWIDTH 400 0
DWIDTH 6 0
BBX 5 12 1 0
BITMAP
10
20
20
00
F0
88
88
F8
80
80
80
78
ENDCHAR
STARTCHAR 00EA
ENCODING 234
SWIDTH 400 0
DWIDTH 6 0
BBX 5 12 1 0
BITMAP
20
50
90
00
F0
88
88
F8
80
80
80
78
ENDCHAR
STARTCHAR 00EB
ENCODING 235
SWIDTH 400 0
DWIDTH 6 0
BBX 5 11 1 0
BITMAP
50
00
00
F0
88
88
F8
80
80
80
78
ENDCHAR
STARTCHAR 00EC
ENCODING 236
SWIDTH 200 0
DWIDTH 3 0
BBX 2 12 0 0
BITMAP
80
80
40
00
40
40
40
40
40
40
40
40
ENDCHAR
STARTCHAR 00ED
ENCODING 237
SWIDTH 200 0
DWIDTH 3 0
BBX 2 12 1 0
BITMAP
40
80
80
00
80
80
80
80
80
80
80
80
ENDCHAR
STARTCHAR 00EE
ENCODING 238
SWIDTH 200 0
DWIDTH 3 0
BBX 3 12 0 0
BITMAP
40
A0
A0
00
40
40
40
40
40
40
40
40
ENDCHAR
STARTCHAR 00EF
ENCODING 239
SWIDTH 200 0
DWIDTH 3 0
BBX 3 11 0 0
BITMAP
A0
00
00
40
40
40
40
40
40
40
40
ENDCHAR
STARTCHAR 00F0
ENCODING 240
SWIDTH 466 0
DWIDTH 7 0
BBX 5 12 1 0
BITMAP
60
28
D0
08
78
88
88
88
88
88
88
70
ENDCHAR
STARTCHAR 00F1
ENCODING 241
SWIDTH 466 0
DWIDTH 7 0
BBX 5 11 1 0
BITMAP
F0
00
00
F8
88
88
88
88
88
88
88
ENDCHAR
STARTCHAR 00F2
ENCODING 242
SWIDTH 466 0
DWIDTH 7 0
BBX 5 12 1 0
BITMAP
40
40
20
00
70
88
88
88
88
88
88
70
ENDCHAR
STARTCHAR 00F3
ENCODING 243
SWIDTH 466 0
DWIDTH 7 0
BBX 5 12 1 0
BITMAP
10
20
20
00
70
88
88
88
88
88
88
70
ENDCHAR
STARTCHAR 00F4
ENCODING 244
SWIDTH 466 0
DWIDTH 7 0
BBX 5 12 1 0
BITMAP
20
50
50
00
70
88
88
88
88
88
88
70
ENDCHAR
STARTCHAR 00F5
ENCODING 245
SWIDTH 466 0
DWIDTH 7 0
BBX 5 11 1 0
BITMAP
F0
00
00
70
88
88
88
88
88
88
70
ENDCHAR
STARTCHAR 00F6
ENCODING 246
SWIDTH 466 0
DWIDTH 7 0
BBX 5 11 1 0
BITMAP
50
00
00
70
88
88
88
88
88
88
70
ENDCHAR
STARTCHAR 00F7
ENCODING 247
SWIDTH 533 0
DWIDTH 8 0
BBX 6 6 1 3
BITMAP
20
00
00
FC
00
20
ENDCHAR
STARTCHAR 00F8
ENCODING 248
SWIDTH 466 0
DWIDTH 7 0
BBX 5 8 1 0
BITMAP
78
88
98
A8
A8
C8
88
F0
ENDCHAR
STARTCHAR 00F9
ENCODING 249
SWIDTH 466 0
DWIDTH 7 0
BBX 5 12 1 0
BITMAP
40
40
20
00
88
88
88
88
88
88
88
F8
ENDCHAR
STARTCHAR 00FA
ENCODING 250
SWIDTH 466 0
DWIDTH 7 0
BBX 5 12 1 0
BITMAP
10
20
20
00
88
88
88
88
88
88
88
F8
ENDCHAR
STARTCHAR 00FB
ENCODING 251
SWIDTH 466 0
DWIDTH 7 0
BBX 5 12 1 0
BITMAP
20
50
50
00
88
88
88
88
88
88
88
F8
ENDCHAR
STARTCHAR 00FC
ENCODING 252
SWIDTH 466 0
DWIDTH 7 0
BBX 5 11 1 0
BITMAP
50
00
00
88
88
88
88
88
88
88
F8
ENDCHAR
STARTCHAR 00FD
ENCODING 253
SWIDTH 400 0
DWIDTH 6 0
BBX 6 15 0 -3
BITMAP
08
10
10
00
84
84
44
48
48
28
30
10
10
20
20
ENDCHAR
STARTCHAR 00FE
ENCODING 254
SWIDTH 466 0
DWIDTH 7 0
BBX 5 15 1 -3
BITMAP
80
80
80
80
F0
88
88
88
88
88
88
F0
80
80
80
ENDCHAR
STARTCHAR 00FF
ENCODING 255
SWIDTH 400 0
DWIDTH 6 0
BBX 6 14 0 -3
BITMAP
28
00
00
84
84
44
48
48
28
30
10
10
20
20
ENDCHAR
STARTCHAR 0100
ENCODING 256
SWIDTH 533 0
DWIDTH 8 0
BBX 8 13 0 0
BITMAP
3C
00
08
18
14
24
24
22
7E
42
41
81
81
ENDCHAR
STARTCHAR 0101
ENCODING 257
SWIDTH 400 0
DWIDTH 6 0
BBX 4 11 1 0
BITMAP
F0
00
00
F0
10
10
30
D0
90
90
F0
ENDCHAR
STARTCHAR 0102
ENCODING 258
SWIDTH 533 0
DWIDTH 8 0
BBX 8 14 0 0
BITMAP
24
18
00
08
18
14
24
24
22
7E
42
41
81
81
ENDCHAR
STARTCHAR 0103
ENCODING 259
SWIDTH 400 0
DWIDTH 6 0
BBX 4 12 1 0
BITMAP
90
90
60
00
F0
10
10
30
D0
90
90
F0
ENDCHAR
STARTCHAR 0104
ENCODING 260
SWIDTH 533 0
DWIDTH 8 0
BBX 9 14 0 -3
BITMAP
0800
1800
1400
2400
2400
2200
7E00
4200
4100
8100
8100
0100
0200
0180
ENDCHAR
STARTCHAR 0105
ENCODING 261
SWIDTH 400 0
DWIDTH 6 0
BBX 5 11 1 -3
BITMAP
F0
08
08
30
C8
88
88
F8
10
10
18
ENDCHAR
STARTCHAR 0106
ENCODING 262
SWIDTH 466 0
DWIDTH 7 0
BBX 6 14 1 0
BITMAP
08
10
00
7C
80
80
80
80
80
80
80
80
80
7C
ENDCHAR
STARTCHAR 0107
ENCODING 263
SWIDTH 333 0
DWIDTH 5 0
BBX 4 12 1 0
BITMAP
10
20
20
00
70
80
80
80
80
80
80
70
ENDCHAR
STARTCHAR 0108
ENCODING 264
SWIDTH 466 0
DWIDTH 7 0
BBX 6 14 1 0
BITMAP
30
28
00
7C
80
80
80
80
80
80
80
80
80
7C
ENDCHAR
STARTCHAR 0109
ENCODING 265
SWIDTH 333 0
DWIDTH 5 0
BBX 4 12 1 0
BITMAP
20
50
90
00
70
80
80
80
80
80
80
70
ENDCHAR
STARTCHAR 010A
ENCODING 266
SWIDTH 466 0
DWIDTH 7 0
BBX 6 14 1 0
BITMAP
10
00
00
7C
80
80
80
80
80
80
80
80
80
7C
ENDCHAR
STARTCHAR 010B
ENCODING 267
SWIDTH 333 0
DWIDTH 5 0
BBX 4 11 1 0
BITMAP
20
00
00
70
80
80
80
80
80
80
70
ENDCHAR
STARTCHAR 010C
ENCODING 268
SWIDTH 466 0
DWIDTH 7 0
BBX 6 14 1 0
BITMAP
28
10
00
7C
80
80
80
80
80
80
80
80
80
7C
ENDCHAR
STARTCHAR 010D
ENCODING 269
SWIDTH 333 0
DWIDTH 5 0
BBX 4 12 1 0
BITMAP
50
60
20
00
70
80
80
80
80
80
80
70
ENDCHAR
STARTCHAR 010E
ENCODING 270
SWIDTH 600 0
DWIDTH 9 0
BBX 7 14 1 0
BITMAP
58
20
00
F8
84
82
82
82
82
82
82
82
84
F8
ENDCHAR
STARTCHAR 010F
ENCODING 271
SWIDTH 466 0
DWIDTH 7 0
BBX 6 12 1 0
BITMAP
0C
0C
0C
08
78
88
88
88
88
88
88
78
ENDCHAR
STARTCHAR 0110
ENCODING 272
SWIDTH 600 0
DWIDTH 9 0
BBX 8 11 0 0
BITMAP
7C
42
41
41
41
F1
41
41
41
42
7C
ENDCHAR
STARTCHAR 0111
ENCODING 273
SWIDTH 466 0
DWIDTH 7 0
BBX 6 12 1 0
BITMAP
08
3C
08
08
78
88
88
88
88
88
88
78
ENDCHAR
STARTCHAR 0112
ENCODING 274
SWIDTH 466 0
DWIDTH 7 0
BBX 6 13 1 0
BITMAP
78
00
FC
80
80
80
80
F8
80
80
80
80
FC
ENDCHAR
STARTCHAR 0113
ENCODING 275
SWIDTH 400 0
DWIDTH 6 0
BBX 5 11 1 0
BITMAP
F0
00
00
F0
88
88
F8
80
80
80
78
ENDCHAR
STARTCHAR 0114
ENCODING 276
SWIDTH 466 0
DWIDTH 7 0
BBX 6 14 1 0
BITMAP
48
30
00
FC
80
80
80
80
F8
80
80
80
80
FC
ENDCHAR
STARTCHAR 0115
ENCODING 277
SWIDTH 400 0
DWIDTH 6 0
BBX 5 12 1 0
BITMAP
90
50
20
00
F0
88
88
F8
80
80
80
78
ENDCHAR
STARTCHAR 0116
ENCODING 278
SWIDTH 466 0
DWIDTH 7 0
BBX 6 14 1 0
BITMAP
10
00
00
FC
80
80
80
80
F8
80
80
80
80
FC
ENDCHAR
STARTCHAR 0117
ENCODING 279
SWIDTH 400 0
DWIDTH 6 0
BBX 5 11 1 0
BITMAP
20
00
00
F0
88
88
F8
80
80
80
78
ENDCHAR
STARTCHAR 0118
ENCODING 280
SWIDTH 466 0
DWIDTH 7 0
BBX 7 14 1 -3
BITMAP
FC
80
80
80
80
F8
80
80
80
80
FC
08
08
0E
ENDCHAR
STARTCHAR 0119
ENCODING 281
SWIDTH 400 0
DWIDTH 6 0
BBX 5 11 1 -3
BITMAP
F0
88
88
F8
80
80
80
58
20
20
38
ENDCHAR
STARTCHAR 011A
ENCODING 282
SWIDTH 466 0
DWIDTH 7 0
BBX 6 14 1 0
BITMAP
68
10
00
FC
80
80
80
80
F8
80
80
80
80
FC
ENDCHAR
STARTCHAR 011B
ENCODING 283
SWIDTH 400 0
DWIDTH 6 0
BBX 5 12 1 0
BITMAP
50
60
20
00
F0
88
88
F8
80
80
80
78
ENDCHAR
STARTCHAR 011C
ENCODING 284
SWIDTH 533 0
DWIDTH 8 0
BBX 6 14 1 0
BITMAP
10
28
00
7C
80
80
80
80
80
84
84
84
84
7C
ENDCHAR
STARTCHAR 011D
ENCODING 285
SWIDTH 466 0
DWIDTH 7 0
BBX 5 15 1 -3
BITMAP
20
50
50
00
78
88
88
88
88
88
88
78
08
08
F0
ENDCHAR
STARTCHAR 011E
ENCODING 286
SWIDTH 533 0
DWIDTH 8 0
BBX 6 14 1 0
BITMAP
24
18
00
7C
80
80
80
80
80
84
84
84
84
7C
ENDCHAR
STARTCHAR 011F
ENCODING 287
SWIDTH 466 0
DWIDTH 7 0
BBX 5 15 1 -3
BITMAP
50
50
20
00
78
88
88
88
88
88
88
78
08
08
F0
ENDCHAR
STARTCHAR 0120
ENCODING 288
SWIDTH 533 0
DWIDTH 8 0
BBX 6 14 1 0
BITMAP
10
00
00
7C
80
80
80
80
80
84
84
84
84
7C
ENDCHAR
STARTCHAR 0121
ENCODING 289
SWIDTH 466 0
DWIDTH 7 0
BBX 5 14 1 -3
BITMAP
20
00
00
78
88
88
88
88
88
88
78
08
08
F0
ENDCHAR
STARTCHAR 0122
ENCODING 290
SWIDTH 533 0
DWIDTH 8 0
BBX 6 14 1 -3
BITMAP
7C
80
80
80
80
80
84
84
84
84
7C
00
10
10
ENDCHAR
STARTCHAR 0123
ENCODING 291
SWIDTH 466 0
DWIDTH 7 0
BBX 5 15 1 -3
BITMAP
20
20
00
00
78
88
88
88
88
88
88
78
08
08
F0
ENDCHAR
STARTCHAR 0124
ENCODING 292
SWIDTH 600 0
DWIDTH 9 0
BBX 7 14 1 0
BITMAP
10
28
00
82
82
82
82
82
FE
82
82
82
82
82
ENDCHAR
STARTCHAR 0125
ENCODING 293
SWIDTH 466 0
DWIDTH 7 0
BBX 5 15 1 0
BITMAP
20
50
00
80
80
80
80
F8
88
88
88
88
88
88
88
ENDCHAR
STARTCHAR 0126
ENCODING 294
SWIDTH 600 0
DWIDTH 9 0
BBX 9 11 0 0
BITMAP
4100
4100
FF80
4100
4100
7F00
4100
4100
4100
4100
4100
ENDCHAR
STARTCHAR 0127
ENCODING 295
SWIDTH 466 0
DWIDTH 7 0
BBX 6 12 0 0
BITMAP
40
F0
40
40
7C
44
44
44
44
44
44
44
ENDCHAR
STARTCHAR 0128
ENCODING 296
SWIDTH 200 0
DWIDTH 3 0
BBX 3 14 0 0
BITMAP
E0
00
00
40
40
40
40
40
40
40
40
40
40
40
ENDCHAR
STARTCHAR 0129
ENCODING 297
SWIDTH 200 0
DWIDTH 3 0
BBX 4 11 -1 0
BITMAP
F0
00
00
20
20
20
20
20
20
20
20
ENDCHAR
STARTCHAR 012A
ENCODING 298
SWIDTH 200 0
DWIDTH 3 0
BBX 3 13 0 0
BITMAP
E0
00
40
40
40
40
40
40
40
40
40
40
40
ENDCHAR
STARTCHAR 012B
ENCODING 299
SWIDTH 200 0
DWIDTH 3 0
BBX 4 11 -1 0
BITMAP
F0
00
00
20
20
20
20
20
20
20
20
ENDCHAR
STARTCHAR 012C
ENCODING 300
SWIDTH 200 0
DWIDTH 3 0
BBX 3 14 0 0
BITMAP
A0
E0
00
40
40
40
40
40
40
40
40
40
40
40
ENDCHAR
STARTCHAR 012D
ENCODING 301
SWIDTH 200 0
DWIDTH 3 0
BBX 3 12 0 0
BITMAP
A0
A0
40
00
40
40
40
40
40
40
40
40
ENDCHAR
STARTCHAR 012E
ENCODING 302
SWIDTH 200 0
DWIDTH 3 0
BBX 3 14 0 -3
BITMAP
40
40
40
40
40
40
40
40
40
40
40
80
80
E0
ENDCHAR
STARTCHAR 012F
ENCODING 303
SWIDTH 200 0
DWIDTH 3 0
BBX 2 14 0 -3
BITMAP
40
00
00
40
40
40
40
40
40
40
40
80
80
C0
ENDCHAR
STARTCHAR 0130
ENCODING 304
SWIDTH 200 0
DWIDTH 3 0
BBX 1 14 1 0
BITMAP
80
00
00
80
80
80
80
80
80
80
80
80
80
80
ENDCHAR
STARTCHAR 0131
ENCODING 305
SWIDTH 200 0
DWIDTH 3 0
BBX 1 8 1 0
BITMAP
80
80
80
80
80
80
80
80
ENDCHAR
STARTCHAR 0134
ENCODING 308
SWIDTH 200 0
DWIDTH 3 0
BBX 3 17 0 -3
BITMAP
C0
A0
00
40
40
40
40
40
40
40
40
40
40
40
40
80
80
ENDCHAR
STARTCHAR 0135
ENCODING 309
SWIDTH 200 0
DWIDTH 3 0
BBX 3 15 0 -3
BITMAP
40
A0
A0
00
40
40
40
40
40
40
40
40
40
80
80
ENDCHAR
STARTCHAR 0136
ENCODING 310
SWIDTH 533 0
DWIDTH 8 0
BBX 7 14 1 -3
BITMAP
82
84
88
90
A0
E0
90
88
88
84
82
00
10
10
ENDCHAR
STARTCHAR 0137
ENCODING 311
SWIDTH 400 0
DWIDTH 6 0
BBX 5 15 1 -3
BITMAP
80
80
80
80
88
90
A0
E0
A0
90
90
88
00
20
20
ENDCHAR
STARTCHAR 0138
ENCODING 312
SWIDTH 400 0
DWIDTH 6 0
BBX 5 8 1 0
BITMAP
88
90
A0
E0
A0
90
90
88
ENDCHAR
STARTCHAR 0139
ENCODING 313
SWIDTH 466 0
DWIDTH 7 0
BBX 6 14 1 0
BITMAP
40
80
00
80
80
80
80
80
80
80
80
80
80
FC
ENDCHAR
STARTCHAR 013A
ENCODING 314
SWIDTH 200 0
DWIDTH 3 0
BBX 2 15 1 0
BITMAP
40
80
00
80
80
80
80
80
80
80
80
80
80
80
80
ENDCHAR
STARTCHAR 013B
ENCODING 315
SWIDTH 466 0
DWIDTH 7 0
BBX 6 14 1 -3
BITMAP
80
80
80
80
80
80
80
80
80
80
FC
00
20
10
ENDCHAR
STARTCHAR 013C
ENCODING 316
SWIDTH 200 0
DWIDTH 3 0
BBX 1 15 1 -3
BITMAP
80
80
80
80
80
80
80
80
80
80
80
80
00
80
80
ENDCHAR
STARTCHAR 013D
ENCODING 317
SWIDTH 466 0
DWIDTH 7 0
BBX 6 12 1 0
BITMAP
10
90
90
80
80
80
80
80
80
80
80
FC
ENDCHAR
STARTCHAR 013E
ENCODING 318
SWIDTH 200 0
DWIDTH 3 0
BBX 2 12 1 0
BITMAP
C0
C0
C0
80
80
80
80
80
80
80
80
80
ENDCHAR
STARTCHAR 013F
ENCODING 319
SWIDTH 466 0
DWIDTH 7 0
BBX 6 11 1 0
BITMAP
80
80
80
80
90
80
80
80
80
80
FC
ENDCHAR
STARTCHAR 0140
ENCODING 320
SWIDTH 200 0
DWIDTH 3 0
BBX 2 12 1 0
BITMAP
80
80
80
80
80
80
C0
80
80
80
80
80
ENDCHAR
STARTCHAR 0141
ENCODING 321
SWIDTH 466 0
DWIDTH 7 0
BBX 7 11 0 0
BITMAP
40
40
40
50
60
40
C0
40
40
40
7E
ENDCHAR
STARTCHAR 0142
ENCODING 322
SWIDTH 200 0
DWIDTH 3 0
BBX 2 12 0 0
BITMAP
40
40
40
40
40
40
40
C0
40
40
40
40
ENDCHAR
STARTCHAR 0143
ENCODING 323
SWIDTH 600 0
DWIDTH 9 0
BBX 7 14 1 0
BITMAP
08
10
00
82
C2
C2
A2
92
92
8A
8A
86
86
82
ENDCHAR
STARTCHAR 0144
ENCODING 324
SWIDTH 466 0
DWIDTH 7 0
BBX 5 12 1 0
BITMAP
10
20
20
00
F8
88
88
88
88
88
88
88
ENDCHAR
STARTCHAR 0145
ENCODING 325
SWIDTH 600 0
DWIDTH 9 0
BBX 7 14 1 -3
BITMAP
82
C2
C2
A2
92
92
8A
8A
86
86
82
00
10
10
ENDCHAR
STARTCHAR 0146
ENCODING 326
SWIDTH 466 0
DWIDTH 7 0
BBX 5 11 1 -3
BITMAP
F8
88
88
88
88
88
88
88
00
20
20
ENDCHAR
STARTCHAR 0147
ENCODING 327
SWIDTH 600 0
DWIDTH 9 0
BBX 7 14 1 0
BITMAP
28
10
00
82
C2
C2
A2
92
92
8A
8A
86
86
82
ENDCHAR
STARTCHAR 0148
ENCODING 328
SWIDTH 466 0
DWIDTH 7 0
BBX 5 12 1 0
BITMAP
50
50
20
00
F8
88
88
88
88
88
88
88
ENDCHAR
STARTCHAR 0149
ENCODING 329
SWIDTH 466 0
DWIDTH 7 0
BBX 6 12 0 0
BITMAP
80
80
00
00
7C
44
44
44
44
44
44
44
ENDCHAR
STARTCHAR 014A
ENCODING 330
SWIDTH 600 0
DWIDTH 9 0
BBX 7 14 1 -3
BITMAP
82
C2
C2
A2
92
92
8A
8A
86
86
82
02
02
06
ENDCHAR
STARTCHAR 014B
ENCODING 331
SWIDTH 466 0
DWIDTH 7 0
BBX 5 11 1 -3
BITMAP
F8
88
88
88
88
88
88
88
08
08
10
ENDCHAR
STARTCHAR 014C
ENCODING 332
SWIDTH 600 0
DWIDTH 9 0
BBX 7 13 1 0
BITMAP
38
00
7C
84
82
82
82
82
82
82
82
84
78
ENDCHAR
STARTCHAR 014D
ENCODING 333
SWIDTH 466 0
DWIDTH 7 0
BBX 5 11 1 0
BITMAP
70
00
00
70
88
88
88
88
88
88
70
ENDCHAR
STARTCHAR 014E
ENCODING 334
SWIDTH 600 0
DWIDTH 9 0
BBX 7 14 1 0
BITMAP
48
30
00
7C
84
82
82
82
82
82
82
82
84
78
ENDCHAR
STARTCHAR 014F
ENCODING 335
SWIDTH 466 0
DWIDTH 7 0
BBX 5 12 1 0
BITMAP
90
50
20
00
70
88
88
88
88
88
88
70
ENDCHAR
STARTCHAR 0150
ENCODING 336
SWIDTH 600 0
DWIDTH 9 0
BBX 7 14 1 0
BITMAP
28
28
00
7C
84
82
82
82
82
82
82
82
84
78
ENDCHAR
STARTCHAR 0151
ENCODING 337
SWIDTH 466 0
DWIDTH 7 0
BBX 5 12 1 0
BITMAP
50
50
50
00
70
88
88
88
88
88
88
70
ENDCHAR
STARTCHAR 0152
ENCODING 338
SWIDTH 800 0
DWIDTH 12 0
BBX 11 11 1 0
BITMAP
7FE0
8200
8200
8200
8200
83C0
8200
8200
8200
4200
3FE0
ENDCHAR
STARTCHAR 0153
ENCODING 339
SWIDTH 733 0
DWIDTH 11 0
BBX 10 8 1 0
BITMAP
F780
8840
8840
8FC0
8800
8800
8C00
7380
ENDCHAR
STARTCHAR 0154
ENCODING 340
SWIDTH 533 0
DWIDTH 8 0
BBX 7 14 1 0
BITMAP
10
10
00
F8
84
84
84
84
F8
90
88
88
84
82
ENDCHAR
STARTCHAR 0155
ENCODING 341
SWIDTH 266 0
DWIDTH 4 0
BBX 3 12 1 0
BITMAP
20
40
40
00
E0
80
80
80
80
80
80
80
ENDCHAR
STARTCHAR 0156
ENCODING 342
SWIDTH 533 0
DWIDTH 8 0
BBX 7 14 1 -3
BITMAP
F8
84
84
84
84
F8
90
88
88
84
82
00
10
10
ENDCHAR
STARTCHAR 0157
ENCODING 343
SWIDTH 266 0
DWIDTH 4 0
BBX 3 11 1 -3
BITMAP
E0
80
80
80
80
80
80
80
00
80
80
ENDCHAR
STARTCHAR 0158
ENCODING 344
SWIDTH 533 0
DWIDTH 8 0
BBX 7 14 1 0
BITMAP
58
20
00
F8
84
84
84
84
F8
90
88
88
84
82
ENDCHAR
STARTCHAR 0159
ENCODING 345
SWIDTH 266 0
DWIDTH 4 0
BBX 3 12 1 0
BITMAP
A0
C0
40
00
E0
80
80
80
80
80
80
80
ENDCHAR
STARTCHAR 015A
ENCODING 346
SWIDTH 466 0
DWIDTH 7 0
BBX 5 14 1 0
BITMAP
30
20
00
F8
80
80
80
80
70
08
08
08
08
F0
ENDCHAR
STARTCHAR 015B
ENCODING 347
SWIDTH 333 0
DWIDTH 5 0
BBX 4 12 1 0
BITMAP
20
20
40
00
F0
80
80
C0
30
10
10
E0
ENDCHAR
STARTCHAR 015C
ENCODING 348
SWIDTH 466 0
DWIDTH 7 0
BBX 5 14 1 0
BITMAP
60
50
00
F8
80
80
80
80
70
08
08
08
08
F0
ENDCHAR
STARTCHAR 015D
ENCODING 349
SWIDTH 333 0
DWIDTH 5 0
BBX 4 12 1 0
BITMAP
40
A0
90
00
F0
80
80
C0
30
10
10
E0
ENDCHAR
STARTCHAR 015E
ENCODING 350
SWIDTH 466 0
DWIDTH 7 0
BBX 5 14 1 -3
BITMAP
F8
80
80
80
80
70
08
08
08
08
D0
20
10
70
ENDCHAR
STARTCHAR 015F
ENCODING 351
SWIDTH 333 0
DWIDTH 5 0
BBX 4 11 1 -3
BITMAP
F0
80
80
C0
30
10
10
A0
40
20
E0
ENDCHAR
STARTCHAR 0160
ENCODING 352
SWIDTH 466 0
DWIDTH 7 0
BBX 5 14 1 0
BITMAP
50
20
00
F8
80
80
80
80
70
08
08
08
08
F0
ENDCHAR
STARTCHAR 0161
ENCODING 353
SWIDTH 333 0
DWIDTH 5 0
BBX 4 12 1 0
BITMAP
A0
60
40
00
F0
80
80
C0
30
10
10
E0
ENDCHAR
STARTCHAR 0162
ENCODING 354
SWIDTH 466 0
DWIDTH 7 0
BBX 7 14 0 -3
BITMAP
FE
10
10
10
10
10
10
10
10
10
10
10
08
38
ENDCHAR
STARTCHAR 0163
ENCODING 355
SWIDTH 266 0
DWIDTH 4 0
BBX 4 14 0 -3
BITMAP
40
40
40
F0
40
40
40
40
40
40
20
10
10
30
ENDCHAR
STARTCHAR 0164
ENCODING 356
SWIDTH 466 0
DWIDTH 7 0
BBX 7 14 0 0
BITMAP
28
10
00
FE
10
10
10
10
10
10
10
10
10
10
ENDCHAR
STARTCHAR 0165
ENCODING 357
SWIDTH 266 0
DWIDTH 4 0
BBX 4 12 0 0
BITMAP
10
50
50
40
F0
40
40
40
40
40
40
30
ENDCHAR
STARTCHAR 0166
ENCODING 358
SWIDTH 466 0
DWIDTH 7 0
BBX 7 11 0 0
BITMAP
FE
10
10
10
10
7C
10
10
10
10
10
ENDCHAR
STARTCHAR 0167
ENCODING 359
SWIDTH 266 0
DWIDTH 4 0
BBX 4 11 0 0
BITMAP
40
40
40
F0
40
40
F0
40
40
40
30
ENDCHAR
STARTCHAR 0168
ENCODING 360
SWIDTH 600 0
DWIDTH 9 0
BBX 7 14 1 0
BITMAP
34
08
00
82
82
82
82
82
82
82
82
82
82
7C
ENDCHAR
STARTCHAR 0169
ENCODING 361
SWIDTH 466 0
DWIDTH 7 0
BBX 5 11 1 0
BITMAP
F0
00
00
88
88
88
88
88
88
88
F8
ENDCHAR
STARTCHAR 016A
ENCODING 362
SWIDTH 600 0
DWIDTH 9 0
BBX 7 13 1 0
BITMAP
38
00
82
82
82
82
82
82
82
82
82
82
7C
ENDCHAR
STARTCHAR 016B
ENCODING 363
SWIDTH 466 0
DWIDTH 7 0
BBX 5 11 1 0
BITMAP
70
00
00
88
88
88
88
88
88
88
F8
ENDCHAR
STARTCHAR 016C
ENCODING 364
SWIDTH 600 0
DWIDTH 9 0
BBX 7 14 1 0
BITMAP
44
38
00
82
82
82
82
82
82
82
82
82
82
7C
ENDCHAR
STARTCHAR 016D
ENCODING 365
SWIDTH 466 0
DWIDTH 7 0
BBX 5 12 1 0
BITMAP
90
50
20
00
88
88
88
88
88
88
88
F8
ENDCHAR
STARTCHAR 016E
ENCODING 366
SWIDTH 600 0
DWIDTH 9 0
BBX 7 15 1 0
BITMAP
10
28
38
00
82
82
82
82
82
82
82
82
82
82
7C
ENDCHAR
STARTCHAR 016F
ENCODING 367
SWIDTH 466 0
DWIDTH 7 0
BBX 5 12 1 0
BITMAP
70
50
20
00
88
88
88
88
88
88
88
F8
ENDCHAR
STARTCHAR 0170
ENCODING 368
SWIDTH 600 0
DWIDTH 9 0
BBX 7 14 1 0
BITMAP
28
28
00
82
82
82
82
82
82
82
82
82
82
7C
ENDCHAR
STARTCHAR 0171
ENCODING 369
SWIDTH 466 0
DWIDTH 7 0
BBX 5 12 1 0
BITMAP
50
50
50
00
88
88
88
88
88
88
88
F8
ENDCHAR
STARTCHAR 0172
ENCODING 370
SWIDTH 600 0
DWIDTH 9 0
BBX 7 14 1 -3
BITMAP
82
82
82
82
82
82
82
82
82
82
6C
10
20
18
ENDCHAR
STARTCHAR 0173
ENCODING 371
SWIDTH 466 0
DWIDTH 7 0
BBX 6 11 1 -3
BITMAP
88
88
88
88
88
88
88
F8
10
10
1C
ENDCHAR
STARTCHAR 0174
ENCODING 372
SWIDTH 866 0
DWIDTH 13 0
BBX 13 14 0 0
BITMAP
0200
0500
0000
8208
4208
4510
4510
4510
2490
28A0
28A0
28A0
1040
1040
ENDCHAR
STARTCHAR 0175
ENCODING 373
SWIDTH 733 0
DWIDTH 11 0
BBX 10 12 0 0
BITMAP
0400
0A00
0A00
0000
8440
4C40
4A40
4A40
4A80
3180
3180
2100
ENDCHAR
STARTCHAR 0176
ENCODING 374
SWIDTH 466 0
DWIDTH 7 0
BBX 7 14 0 0
BITMAP
10
28
00
82
42
44
24
28
10
10
10
10
10
10
ENDCHAR
STARTCHAR 0177
ENCODING 375
SWIDTH 400 0
DWIDTH 6 0
BBX 6 15 0 -3
BITMAP
10
28
48
00
84
84
44
48
48
28
30
10
10
20
20
ENDCHAR
STARTCHAR 0178
ENCODING 376
SWIDTH 466 0
DWIDTH 7 0
BBX 7 14 0 0
BITMAP
24
00
00
82
42
44
24
28
10
10
10
10
10
10
ENDCHAR
STARTCHAR 0179
ENCODING 377
SWIDTH 466 0
DWIDTH 7 0
BBX 7 14 0 0
BITMAP
08
10
00
FE
04
04
08
08
10
20
20
40
40
FE
ENDCHAR
STARTCHAR 017A
ENCODING 378
SWIDTH 400 0
DWIDTH 6 0
BBX 5 12 0 0
BITMAP
10
10
20
00
F8
08
10
10
20
40
40
F8
ENDCHAR
STARTCHAR 017B
ENCODING 379
SWIDTH 466 0
DWIDTH 7 0
BBX 7 14 0 0
BITMAP
10
00
00
FE
04
04
08
08
10
20
20
40
40
FE
ENDCHAR
STARTCHAR 017C
ENCODING 380
SWIDTH 400 0
DWIDTH 6 0
BBX 5 11 0 0
BITMAP
20
00
00
F8
08
10
10
20
40
40
F8
ENDCHAR
STARTCHAR 017D
ENCODING 381
SWIDTH 466 0
DWIDTH 7 0
BBX 7 14 0 0
BITMAP
28
10
00
FE
04
04
08
08
10
20
20
40
40
FE
ENDCHAR
STARTCHAR 017E
ENCODING 382
SWIDTH 400 0
DWIDTH 6 0
BBX 5 12 0 0
BITMAP
50
30
20
00
F8
08
10
10
20
40
40
F8
ENDCHAR
STARTCHAR 018F
ENCODING 399
SWIDTH 600 0
DWIDTH 9 0
BBX 7 11 1 0
BITMAP
F8
04
02
02
02
FE
82
82
82
84
78
ENDCHAR
STARTCHAR 0192
ENCODING 402
SWIDTH 266 0
DWIDTH 4 0
BBX 6 15 -1 -3
BITMAP
1C
20
20
20
78
20
20
20
20
20
20
20
20
20
E0
ENDCHAR
STARTCHAR 01A0
ENCODING 416
SWIDTH 600 0
DWIDTH 9 0
BBX 7 13 1 0
BITMAP
02
02
7C
84
82
82
82
82
82
82
82
84
78
ENDCHAR
STARTCHAR 01A1
ENCODING 417
SWIDTH 466 0
DWIDTH 7 0
BBX 5 10 1 0
BITMAP
08
08
70
88
88
88
88
88
88
70
ENDCHAR
STARTCHAR 01AF
ENCODING 431
SWIDTH 600 0
DWIDTH 9 0
BBX 8 13 1 0
BITMAP
01
01
82
82
82
82
82
82
82
82
82
82
7C
ENDCHAR
STARTCHAR 01B0
ENCODING 432
SWIDTH 466 0
DWIDTH 7 0
BBX 6 10 1 0
BITMAP
04
04
88
88
88
88
88
88
88
F8
ENDCHAR
STARTCHAR 01C4
ENCODING 452
SWIDTH 1066 0
DWIDTH 16 0
BBX 14 14 1 0
BITMAP
0058
0020
0000
F8FC
8404
8208
8210
8210
8220
8220
8240
8240
8480
F8FC
ENDCHAR
STARTCHAR 01C5
ENCODING 453
SWIDTH 933 0
DWIDTH 14 0
BBX 13 12 1 0
BITMAP
0050
F820
8400
8200
82F8
8210
8210
8220
8220
8240
8440
F8F8
ENDCHAR
STARTCHAR 01C6
ENCODING 454
SWIDTH 800 0
DWIDTH 12 0
BBX 11 12 1 0
BITMAP
0940
0880
0880
0800
7BE0
8840
8840
8880
8880
8900
8900
7BE0
ENDCHAR
STARTCHAR 01C7
ENCODING 455
SWIDTH 666 0
DWIDTH 10 0
BBX 7 14 1 -3
BITMAP
82
82
82
82
82
82
82
82
82
82
FE
02
02
04
ENDCHAR
STARTCHAR 01C8
ENCODING 456
SWIDTH 600 0
DWIDTH 9 0
BBX 7 14 1 -3
BITMAP
82
80
80
82
82
82
82
82
82
82
FE
02
02
06
ENDCHAR
STARTCHAR 01C9
ENCODING 457
SWIDTH 333 0
DWIDTH 5 0
BBX 3 15 1 -3
BITMAP
80
A0
80
80
A0
A0
A0
A0
A0
A0
A0
A0
20
20
60
ENDCHAR
STARTCHAR 01CA
ENCODING 458
SWIDTH 800 0
DWIDTH 12 0
BBX 10 14 1 -3
BITMAP
8240
C240
C240
A240
9240
9240
8A40
8A40
8640
8640
8240
0040
0040
0080
ENDCHAR
STARTCHAR 01CB
ENCODING 459
SWIDTH 800 0
DWIDTH 12 0
BBX 10 14 1 -3
BITMAP
8240
C200
C200
A240
9240
9240
8A40
8A40
8640
8640
8240
0040
0040
0080
ENDCHAR
STARTCHAR 01CC
ENCODING 460
SWIDTH 666 0
DWIDTH 10 0
BBX 8 14 1 -3
BITMAP
01
00
00
F9
89
89
89
89
89
89
89
01
02
02
ENDCHAR
STARTCHAR 01E6
ENCODING 486
SWIDTH 533 0
DWIDTH 8 0
BBX 6 14 1 0
BITMAP
28
10
00
7C
80
80
80
80
80
84
84
84
84
7C
ENDCHAR
STARTCHAR 01E7
ENCODING 487
SWIDTH 466 0
DWIDTH 7 0
BBX 5 15 1 -3
BITMAP
50
50
20
00
78
88
88
88
88
88
88
78
08
08
F0
ENDCHAR
STARTCHAR 01EA
ENCODING 490
SWIDTH 600 0
DWIDTH 9 0
BBX 7 14 1 -3
BITMAP
7C
84
82
82
82
82
82
82
82
84
68
10
20
1C
ENDCHAR
STARTCHAR 01EB
ENCODING 491
SWIDTH 466 0
DWIDTH 7 0
BBX 5 11 1 -3
BITMAP
70
88
88
88
88
88
88
50
20
40
70
ENDCHAR
STARTCHAR 01F1
ENCODING 497
SWIDTH 1066 0
DWIDTH 16 0
BBX 14 11 1 0
BITMAP
F8FC
8404
8208
8210
8210
8220
8220
8240
8240
8480
F8FC
ENDCHAR
STARTCHAR 01F2
ENCODING 498
SWIDTH 933 0
DWIDTH 14 0
BBX 13 11 1 0
BITMAP
F800
8400
8200
82F8
8210
8210
8220
8220
8240
8440
F8F8
ENDCHAR
STARTCHAR 01F3
ENCODING 499
SWIDTH 800 0
DWIDTH 12 0
BBX 11 12 1 0
BITMAP
0800
0800
0800
0800
7BE0
8840
8840
8880
8880
8900
8900
7BE0
ENDCHAR
STARTCHAR 01F4
ENCODING 500
SWIDTH 533 0
DWIDTH 8 0
BBX 6 14 1 0
BITMAP
08
10
00
7C
80
80
80
80
80
84
84
84
84
7C
ENDCHAR
STARTCHAR 01F5
ENCODING 501
SWIDTH 466 0
DWIDTH 7 0
BBX 5 15 1 -3
BITMAP
10
10
20
00
78
88
88
88
88
88
88
78
08
08
F0
ENDCHAR
STARTCHAR 01FA
ENCODING 506
SWIDTH 533 0
DWIDTH 8 0
BBX 8 16 0 0
BITMAP
02
1C
14
18
00
08
18
14
24
24
22
7E
42
41
81
81
ENDCHAR
STARTCHAR 01FB
ENCODING 507
SWIDTH 400 0
DWIDTH 6 0
BBX 4 13 1 0
BITMAP
10
70
50
20
00
F0
10
10
30
D0
90
90
F0
ENDCHAR
STARTCHAR 01FC
ENCODING 508
SWIDTH 800 0
DWIDTH 12 0
BBX 11 14 0 0
BITMAP
0200
0200
0000
0FE0
1400
1200
1200
2200
23E0
7E00
4200
4200
8200
83E0
ENDCHAR
STARTCHAR 01FD
ENCODING 509
SWIDTH 666 0
DWIDTH 10 0
BBX 9 12 1 0
BITMAP
0400
0800
0800
0000
F700
0880
0880
3F80
C800
8800
8800
F780
ENDCHAR
STARTCHAR 01FE
ENCODING 510
SWIDTH 600 0
DWIDTH 9 0
BBX 7 14 1 0
BITMAP
08
10
00
7E
84
86
8A
92
92
A2
A2
C2
84
F8
ENDCHAR
STARTCHAR 01FF
ENCODING 511
SWIDTH 466 0
DWIDTH 7 0
BBX 5 12 1 0
BITMAP
10
20
20
00
78
88
98
A8
A8
C8
88
F0
ENDCHAR
STARTCHAR 0200
ENCODING 512
SWIDTH 533 0
DWIDTH 8 0
BBX 8 14 0 0
BITMAP
28
14
00
08
18
14
24
24
22
7E
42
41
81
81
ENDCHAR
STARTCHAR 0201
ENCODING 513
SWIDTH 400 0
DWIDTH 6 0
BBX 4 12 1 0
BITMAP
A0
A0
50
00
F0
10
10
30
D0
90
90
F0
ENDCHAR
STARTCHAR 0202
ENCODING 514
SWIDTH 533 0
DWIDTH 8 0
BBX 8 14 0 0
BITMAP
1C
24
00
08
18
14
24
24
22
7E
42
41
81
81
ENDCHAR
STARTCHAR 0203
ENCODING 515
SWIDTH 400 0
DWIDTH 6 0
BBX 4 12 1 0
BITMAP
60
90
00
00
F0
10
10
30
D0
90
90
F0
ENDCHAR
STARTCHAR 0204
ENCODING 516
SWIDTH 466 0
DWIDTH 7 0
BBX 6 14 1 0
BITMAP
50
30
00
FC
80
80
80
80
F8
80
80
80
80
FC
ENDCHAR
STARTCHAR 0205
ENCODING 517
SWIDTH 400 0
DWIDTH 6 0
BBX 5 12 1 0
BITMAP
A0
60
50
00
F0
88
88
F8
80
80
80
78
ENDCHAR
STARTCHAR 0206
ENCODING 518
SWIDTH 466 0
DWIDTH 7 0
BBX 6 14 1 0
BITMAP
38
48
00
FC
80
80
80
80
F8
80
80
80
80
FC
ENDCHAR
STARTCHAR 0207
ENCODING 519
SWIDTH 400 0
DWIDTH 6 0
BBX 5 12 1 0
BITMAP
70
90
00
00
F0
88
88
F8
80
80
80
78
ENDCHAR
STARTCHAR 0208
ENCODING 520
SWIDTH 200 0
DWIDTH 3 0
BBX 3 14 0 0
BITMAP
C0
A0
00
40
40
40
40
40
40
40
40
40
40
40
ENDCHAR
STARTCHAR 0209
ENCODING 521
SWIDTH 200 0
DWIDTH 3 0
BBX 3 12 -1 0
BITMAP
A0
60
60
00
20
20
20
20
20
20
20
20
ENDCHAR
STARTCHAR 020A
ENCODING 522
SWIDTH 200 0
DWIDTH 3 0
BBX 3 14 0 0
BITMAP
E0
A0
00
40
40
40
40
40
40
40
40
40
40
40
ENDCHAR
STARTCHAR 020B
ENCODING 523
SWIDTH 200 0
DWIDTH 3 0
BBX 3 12 0 0
BITMAP
E0
A0
00
00
40
40
40
40
40
40
40
40
ENDCHAR
STARTCHAR 020C
ENCODING 524
SWIDTH 600 0
DWIDTH 9 0
BBX 7 14 1 0
BITMAP
50
28
00
7C
84
82
82
82
82
82
82
82
84
78
ENDCHAR
STARTCHAR 020D
ENCODING 525
SWIDTH 466 0
DWIDTH 7 0
BBX 5 12 1 0
BITMAP
A0
50
50
00
70
88
88
88
88
88
88
70
ENDCHAR
STARTCHAR 020E
ENCODING 526
SWIDTH 600 0
DWIDTH 9 0
BBX 7 14 1 0
BITMAP
38
48
00
7C
84
82
82
82
82
82
82
82
84
78
ENDCHAR
STARTCHAR 020F
ENCODING 527
SWIDTH 466 0
DWIDTH 7 0
BBX 5 12 1 0
BITMAP
70
50
00
00
70
88
88
88
88
88
88
70
ENDCHAR
STARTCHAR 0210
ENCODING 528
SWIDTH 533 0
DWIDTH 8 0
BBX 7 14 1 0
BITMAP
50
50
00
F8
84
84
84
84
F8
90
88
88
84
82
ENDCHAR
STARTCHAR 0211
ENCODING 529
SWIDTH 266 0
DWIDTH 4 0
BBX 3 12 1 0
BITMAP
C0
A0
A0
00
E0
80
80
80
80
80
80
80
ENDCHAR
STARTCHAR 0212
ENCODING 530
SWIDTH 533 0
DWIDTH 8 0
BBX 7 14 1 0
BITMAP
78
48
00
F8
84
84
84
84
F8
90
88
88
84
82
ENDCHAR
STARTCHAR 0213
ENCODING 531
SWIDTH 266 0
DWIDTH 4 0
BBX 3 12 1 0
BITMAP
E0
A0
00
00
E0
80
80
80
80
80
80
80
ENDCHAR
STARTCHAR 0214
ENCODING 532
SWIDTH 600 0
DWIDTH 9 0
BBX 7 14 1 0
BITMAP
30
28
00
82
82
82
82
82
82
82
82
82
82
7C
ENDCHAR
STARTCHAR 0215
ENCODING 533
SWIDTH 466 0
DWIDTH 7 0
BBX 5 12 1 0
BITMAP
A0
50
50
00
88
88
88
88
88
88
88
F8
ENDCHAR
STARTCHAR 0216
ENCODING 534
SWIDTH 600 0
DWIDTH 9 0
BBX 7 14 1 0
BITMAP
38
44
00
82
82
82
82
82
82
82
82
82
82
7C
ENDCHAR
STARTCHAR 0217
ENCODING 535
SWIDTH 466 0
DWIDTH 7 0
BBX 5 12 1 0
BITMAP
70
50
00
00
88
88
88
88
88
88
88
F8
ENDCHAR
STARTCHAR 0218
ENCODING 536
SWIDTH 466 0
DWIDTH 7 0
BBX 5 14 1 -3
BITMAP
F8
80
80
80
80
70
08
08
08
08
F0
00
20
20
ENDCHAR
STARTCHAR 0219
ENCODING 537
SWIDTH 333 0
DWIDTH 5 0
BBX 4 11 1 -3
BITMAP
F0
80
80
C0
30
10
10
E0
00
40
20
ENDCHAR
STARTCHAR 021A
ENCODING 538
SWIDTH 466 0
DWIDTH 7 0
BBX 7 14 0 -3
BITMAP
FE
10
10
10
10
10
10
10
10
10
10
00
10
10
ENDCHAR
STARTCHAR 021B
ENCODING 539
SWIDTH 266 0
DWIDTH 4 0
BBX 4 14 0 -3
BITMAP
40
40
40
F0
40
40
40
40
40
40
30
00
20
10
ENDCHAR
STARTCHAR 022A
ENCODING 554
SWIDTH 600 0
DWIDTH 9 0
BBX 7 15 1 0
BITMAP
38
28
00
00
7C
84
82
82
82
82
82
82
82
84
78
ENDCHAR
STARTCHAR 022B
ENCODING 555
SWIDTH 466 0
DWIDTH 7 0
BBX 5 13 1 0
BITMAP
70
00
50
00
00
70
88
88
88
88
88
88
70
ENDCHAR
STARTCHAR 022C
ENCODING 556
SWIDTH 600 0
DWIDTH 9 0
BBX 7 15 1 0
BITMAP
38
74
08
00
7C
84
82
82
82
82
82
82
82
84
78
ENDCHAR
STARTCHAR 022D
ENCODING 557
SWIDTH 466 0
DWIDTH 7 0
BBX 5 13 1 0
BITMAP
70
40
B0
00
00
70
88
88
88
88
88
88
70
ENDCHAR
STARTCHAR 0230
ENCODING 560
SWIDTH 600 0
DWIDTH 9 0
BBX 7 15 1 0
BITMAP
38
10
00
00
7C
84
82
82
82
82
82
82
82
84
78
ENDCHAR
STARTCHAR 0231
ENCODING 561
SWIDTH 466 0
DWIDTH 7 0
BBX 5 13 1 0
BITMAP
70
00
20
00
00
70
88
88
88
88
88
88
70
ENDCHAR
STARTCHAR 0232
ENCODING 562
SWIDTH 466 0
DWIDTH 7 0
BBX 7 13 0 0
BITMAP
38
00
82
42
44
24
28
10
10
10
10
10
10
ENDCHAR
STARTCHAR 0233
ENCODING 563
SWIDTH 400 0
DWIDTH 6 0
BBX 6 14 0 -3
BITMAP
78
00
00
84
84
44
48
48
28
30
10
10
20
20
ENDCHAR
STARTCHAR 0237
ENCODING 567
SWIDTH 200 0
DWIDTH 3 0
BBX 2 11 0 -3
BITMAP
40
40
40
40
40
40
40
40
40
80
80
ENDCHAR
STARTCHAR 0259
ENCODING 601
SWIDTH 400 0
DWIDTH 6 0
BBX 5 8 1 0
BITMAP
F0
08
08
08
F8
88
88
F0
ENDCHAR
STARTCHAR 02BB
ENCODING 699
SWIDTH 400 0
DWIDTH 6 0
BBX 1 2 3 10
BITMAP
80
80
ENDCHAR
STARTCHAR 02BC
ENCODING 700
SWIDTH 400 0
DWIDTH 6 0
BBX 1 2 3 10
BITMAP
80
80
ENDCHAR
STARTCHAR 02BE
ENCODING 702
SWIDTH 400 0
DWIDTH 6 0
BBX 1 3 3 9
BITMAP
80
80
80
ENDCHAR
STARTCHAR 02BF
ENCODING 703
SWIDTH 400 0
DWIDTH 6 0
BBX 1 3 2 9
BITMAP
80
80
80
ENDCHAR
STARTCHAR 02C6
ENCODING 710
SWIDTH 400 0
DWIDTH 6 0
BBX 3 3 3 9
BITMAP
40
A0
A0
ENDCHAR
STARTCHAR 02C7
ENCODING 711
SWIDTH 400 0
DWIDTH 6 0
BBX 3 3 3 9
BITMAP
A0
A0
40
ENDCHAR
STARTCHAR 02C8
ENCODING 712
SWIDTH 600 0
DWIDTH 9 0
BBX 1 3 4 9
BITMAP
80
80
80
ENDCHAR
STARTCHAR 02C9
ENCODING 713
SWIDTH 400 0
DWIDTH 6 0
BBX 4 1 1 10
BITMAP
F0
ENDCHAR
STARTCHAR 02CA
ENCODING 714
SWIDTH 400 0
DWIDTH 6 0
BBX 1 3 3 9
BITMAP
80
80
80
ENDCHAR
STARTCHAR 02CB
ENCODING 715
SWIDTH 400 0
DWIDTH 6 0
BBX 1 3 2 9
BITMAP
80
80
80
ENDCHAR
STARTCHAR 02CC
ENCODING 716
SWIDTH 600 0
DWIDTH 9 0
BBX 1 3 4 -3
BITMAP
80
80
80
ENDCHAR
STARTCHAR 02D8
ENCODING 728
SWIDTH 400 0
DWIDTH 6 0
BBX 3 2 3 10
BITMAP
A0
E0
ENDCHAR
STARTCHAR 02D9
ENCODING 729
SWIDTH 400 0
DWIDTH 6 0
BBX 1 1 4 10
BITMAP
80
ENDCHAR
STARTCHAR 02DA
ENCODING 730
SWIDTH 400 0
DWIDTH 6 0
BBX 3 3 3 9
BITMAP
E0
A0
40
ENDCHAR
STARTCHAR 02DB
ENCODING 731
SWIDTH 400 0
DWIDTH 6 0
BBX 2 3 3 -3
BITMAP
C0
80
C0
ENDCHAR
STARTCHAR 02DC
ENCODING 732
SWIDTH 400 0
DWIDTH 6 0
BBX 3 1 3 10
BITMAP
E0
ENDCHAR
STARTCHAR 02DD
ENCODING 733
SWIDTH 400 0
DWIDTH 6 0
BBX 3 3 3 9
BITMAP
60
A0
A0
ENDCHAR
STARTCHAR 0300
ENCODING 768
SWIDTH 0 0
DWIDTH 0 0
BBX 2 3 3 9
BITMAP
80
40
40
ENDCHAR
STARTCHAR 0301
ENCODING 769
SWIDTH 0 0
DWIDTH 0 0
BBX 2 3 4 9
BITMAP
40
80
80
ENDCHAR
STARTCHAR 0302
ENCODING 770
SWIDTH 0 0
DWIDTH 0 0
BBX 3 3 3 9
BITMAP
40
A0
A0
ENDCHAR
STARTCHAR 0303
ENCODING 771
SWIDTH 0 0
DWIDTH 0 0
BBX 3 1 3 10
BITMAP
E0
ENDCHAR
STARTCHAR 0304
ENCODING 772
SWIDTH 0 0
DWIDTH 0 0
BBX 3 1 3 10
BITMAP
E0
ENDCHAR
STARTCHAR 0306
ENCODING 774
SWIDTH 0 0
DWIDTH 0 0
BBX 3 2 3 10
BITMAP
A0
E0
ENDCHAR
STARTCHAR 0307
ENCODING 775
SWIDTH 0 0
DWIDTH 0 0
BBX 1 1 4 10
BITMAP
80
ENDCHAR
STARTCHAR 0308
ENCODING 776
SWIDTH 0 0
DWIDTH 0 0
BBX 3 1 3 10
BITMAP
A0
ENDCHAR
STARTCHAR 0309
ENCODING 777
SWIDTH 0 0
DWIDTH 0 0
BBX 2 3 4 9
BITMAP
C0
40
80
ENDCHAR
STARTCHAR 030A
ENCODING 778
SWIDTH 0 0
DWIDTH 0 0
BBX 3 3 3 9
BITMAP
E0
A0
40
ENDCHAR
STARTCHAR 030B
ENCODING 779
SWIDTH 0 0
DWIDTH 0 0
BBX 3 3 3 9
BITMAP
60
A0
A0
ENDCHAR
STARTCHAR 030C
ENCODING 780
SWIDTH 0 0
DWIDTH 0 0
BBX 3 3 3 9
BITMAP
A0
A0
40
ENDCHAR
STARTCHAR 030F
ENCODING 783
SWIDTH 0 0
DWIDTH 0 0
BBX 3 3 3 9
BITMAP
C0
A0
A0
ENDCHAR
STARTCHAR 0311
ENCODING 785
SWIDTH 0 0
DWIDTH 0 0
BBX 3 2 3 10
BITMAP
E0
A0
ENDCHAR
STARTCHAR 0312
ENCODING 786
SWIDTH 0 0
DWIDTH 0 0
BBX 1 2 4 10
BITMAP
80
80
ENDCHAR
STARTCHAR 031B
ENCODING 795
SWIDTH 0 0
DWIDTH 0 0
BBX 3 2 4 11
BITMAP
20
E0
ENDCHAR
STARTCHAR 0323
ENCODING 803
SWIDTH 0 0
DWIDTH 0 0
BBX 1 1 4 -2
BITMAP
80
ENDCHAR
STARTCHAR 0324
ENCODING 804
SWIDTH 0 0
DWIDTH 0 0
BBX 3 1 3 -2
BITMAP
A0
ENDCHAR
STARTCHAR 0326
ENCODING 806
SWIDTH 0 0
DWIDTH 0 0
BBX 1 2 4 -3
BITMAP
80
80
ENDCHAR
STARTCHAR 0327
ENCODING 807
SWIDTH 0 0
DWIDTH 0 0
BBX 3 3 3 -3
BITMAP
40
20
E0
ENDCHAR
STARTCHAR 0328
ENCODING 808
SWIDTH 0 0
DWIDTH 0 0
BBX 2 3 3 -3
BITMAP
C0
80
C0
ENDCHAR
STARTCHAR 032E
ENCODING 814
SWIDTH 0 0
DWIDTH 0 0
BBX 3 2 3 -3
BITMAP
A0
E0
ENDCHAR
STARTCHAR 0331
ENCODING 817
SWIDTH 0 0
DWIDTH 0 0
BBX 3 1 3 -2
BITMAP
E0
ENDCHAR
STARTCHAR 0394
ENCODING 916
SWIDTH 533 0
DWIDTH 8 0
BBX 8 11 0 0
BITMAP
08
18
14
24
24
22
42
42
41
81
FF
ENDCHAR
STARTCHAR 03A9
ENCODING 937
SWIDTH 600 0
DWIDTH 9 0
BBX 7 11 1 0
BITMAP
7C
82
82
82
82
82
82
82
82
44
EE
ENDCHAR
STARTCHAR 03BC
ENCODING 956
SWIDTH 466 0
DWIDTH 7 0
BBX 5 11 1 -3
BITMAP
88
88
88
88
88
88
88
F8
80
80
80
ENDCHAR
STARTCHAR 03C0
ENCODING 960
SWIDTH 533 0
DWIDTH 8 0
BBX 8 8 0 0
BITMAP
FE
44
44
44
44
44
44
43
ENDCHAR
STARTCHAR 1E08
ENCODING 7688
SWIDTH 466 0
DWIDTH 7 0
BBX 6 17 1 -3
BITMAP
08
10
00
7C
80
80
80
80
80
80
80
80
80
6C
10
08
38
ENDCHAR
STARTCHAR 1E09
ENCODING 7689
SWIDTH 333 0
DWIDTH 5 0
BBX 4 15 1 -3
BITMAP
10
20
20
00
70
80
80
80
80
80
80
50
20
10
70
ENDCHAR
STARTCHAR 1E0C
ENCODING 7692
SWIDTH 600 0
DWIDTH 9 0
BBX 7 13 1 -2
BITMAP
F8
84
82
82
82
82
82
82
82
84
F8
00
20
ENDCHAR
STARTCHAR 1E0D
ENCODING 7693
SWIDTH 466 0
DWIDTH 7 0
BBX 5 14 1 -2
BITMAP
08
08
08
08
78
88
88
88
88
88
88
78
00
20
ENDCHAR
STARTCHAR 1E0E
ENCODING 7694
SWIDTH 600 0
DWIDTH 9 0
BBX 7 13 1 -2
BITMAP
F8
84
82
82
82
82
82
82
82
84
F8
00
78
ENDCHAR
STARTCHAR 1E0F
ENCODING 7695
SWIDTH 466 0
DWIDTH 7 0
BBX 5 14 1 -2
BITMAP
08
08
08
08
78
88
88
88
88
88
88
78
00
70
ENDCHAR
STARTCHAR 1E14
ENCODING 7700
SWIDTH 466 0
DWIDTH 7 0
BBX 6 16 1 0
BITMAP
20
20
78
00
00
FC
80
80
80
80
F8
80
80
80
80
FC
ENDCHAR
STARTCHAR 1E15
ENCODING 7701
SWIDTH 400 0
DWIDTH 6 0
BBX 5 14 1 0
BITMAP
40
20
00
F0
00
00
F0
88
88
F8
80
80
80
78
ENDCHAR
STARTCHAR 1E16
ENCODING 7702
SWIDTH 466 0
DWIDTH 7 0
BBX 6 16 1 0
BITMAP
10
10
78
00
00
FC
80
80
80
80
F8
80
80
80
80
FC
ENDCHAR
STARTCHAR 1E17
ENCODING 7703
SWIDTH 400 0
DWIDTH 6 0
BBX 5 14 1 0
BITMAP
30
20
00
F0
00
00
F0
88
88
F8
80
80
80
78
ENDCHAR
STARTCHAR 1E1C
ENCODING 7708
SWIDTH 466 0
DWIDTH 7 0
BBX 6 17 1 -3
BITMAP
48
30
00
FC
80
80
80
80
F8
80
80
80
80
FC
10
08
38
ENDCHAR
STARTCHAR 1E1D
ENCODING 7709
SWIDTH 400 0
DWIDTH 6 0
BBX 5 15 1 -3
BITMAP
90
50
20
00
F0
88
88
F8
80
80
80
58
20
10
70
ENDCHAR
STARTCHAR 1E20
ENCODING 7712
SWIDTH 533 0
DWIDTH 8 0
BBX 6 13 1 0
BITMAP
38
00
7C
80
80
80
80
80
84
84
84
84
7C
ENDCHAR
STARTCHAR 1E21
ENCODING 7713
SWIDTH 466 0
DWIDTH 7 0
BBX 5 14 1 -3
BITMAP
70
00
00
78
88
88
88
88
88
88
78
08
08
F0
ENDCHAR
STARTCHAR 1E24
ENCODING 7716
SWIDTH 600 0
DWIDTH 9 0
BBX 7 13 1 -2
BITMAP
82
82
82
82
82
FE
82
82
82
82
82
00
10
ENDCHAR
STARTCHAR 1E25
ENCODING 7717
SWIDTH 466 0
DWIDTH 7 0
BBX 5 14 1 -2
BITMAP
80
80
80
80
F8
88
88
88
88
88
88
88
00
20
ENDCHAR
STARTCHAR 1E2A
ENCODING 7722
SWIDTH 600 0
DWIDTH 9 0
BBX 7 14 1 -3
BITMAP
82
82
82
82
82
FE
82
82
82
82
82
00
44
38
ENDCHAR
STARTCHAR 1E2B
ENCODING 7723
SWIDTH 466 0
DWIDTH 7 0
BBX 5 15 1 -3
BITMAP
80
80
80
80
F8
88
88
88
88
88
88
88
00
50
70
ENDCHAR
STARTCHAR 1E2E
ENCODING 7726
SWIDTH 200 0
DWIDTH 3 0
BBX 3 16 0 0
BITMAP
20
40
A0
00
00
40
40
40
40
40
40
40
40
40
40
40
ENDCHAR
STARTCHAR 1E2F
ENCODING 7727
SWIDTH 200 0
DWIDTH 3 0
BBX 3 14 0 0
BITMAP
20
40
00
A0
00
00
40
40
40
40
40
40
40
40
ENDCHAR
STARTCHAR 1E36
ENCODING 7734
SWIDTH 466 0
DWIDTH 7 0
BBX 6 13 1 -2
BITMAP
80
80
80
80
80
80
80
80
80
80
FC
00
20
ENDCHAR
STARTCHAR 1E37
ENCODING 7735
SWIDTH 200 0
DWIDTH 3 0
BBX 1 14 1 -2
BITMAP
80
80
80
80
80
80
80
80
80
80
80
80
00
80
ENDCHAR
STARTCHAR 1E3A
ENCODING 7738
SWIDTH 466 0
DWIDTH 7 0
BBX 6 13 1 -2
BITMAP
80
80
80
80
80
80
80
80
80
80
FC
00
78
ENDCHAR
STARTCHAR 1E3B
ENCODING 7739
SWIDTH 200 0
DWIDTH 3 0
BBX 3 14 0 -2
BITMAP
40
40
40
40
40
40
40
40
40
40
40
40
00
E0
ENDCHAR
STARTCHAR 1E42
ENCODING 7746
SWIDTH 733 0
DWIDTH 11 0
BBX 9 13 1 -2
BITMAP
8080
C080
C180
A180
A280
A280
9480
9480
8880
8880
8080
0000
0800
ENDCHAR
STARTCHAR 1E43
ENCODING 7747
SWIDTH 733 0
DWIDTH 11 0
BBX 9 10 1 -2
BITMAP
F780
8880
8880
8880
8880
8880
8880
8880
0000
0800
ENDCHAR
STARTCHAR 1E44
ENCODING 7748
SWIDTH 600 0
DWIDTH 9 0
BBX 7 14 1 0
BITMAP
10
00
00
82
C2
C2
A2
92
92
8A
8A
86
86
82
ENDCHAR
STARTCHAR 1E45
ENCODING 7749
SWIDTH 466 0
DWIDTH 7 0
BBX 5 11 1 0
BITMAP
20
00
00
F8
88
88
88
88
88
88
88
ENDCHAR
STARTCHAR 1E46
ENCODING 7750
SWIDTH 600 0
DWIDTH 9 0
BBX 7 13 1 -2
BITMAP
82
C2
C2
A2
92
92
8A
8A
86
86
82
00
10
ENDCHAR
STARTCHAR 1E47
ENCODING 7751
SWIDTH 466 0
DWIDTH 7 0
BBX 5 10 1 -2
BITMAP
F8
88
88
88
88
88
88
88
00
20
ENDCHAR
STARTCHAR 1E48
ENCODING 7752
SWIDTH 600 0
DWIDTH 9 0
BBX 7 13 1 -2
BITMAP
82
C2
C2
A2
92
92
8A
8A
86
86
82
00
38
ENDCHAR
STARTCHAR 1E49
ENCODING 7753
SWIDTH 466 0
DWIDTH 7 0
BBX 5 10 1 -2
BITMAP
F8
88
88
88
88
88
88
88
00
70
ENDCHAR
STARTCHAR 1E4C
ENCODING 7756
SWIDTH 600 0
DWIDTH 9 0
BBX 7 16 1 0
BITMAP
08
10
74
08
00
7C
84
82
82
82
82
82
82
82
84
78
ENDCHAR
STARTCHAR 1E4D
ENCODING 7757
SWIDTH 466 0
DWIDTH 7 0
BBX 5 14 1 0
BITMAP
10
20
40
B0
00
00
70
88
88
88
88
88
88
70
ENDCHAR
STARTCHAR 1E4E
ENCODING 7758
SWIDTH 600 0
DWIDTH 9 0
BBX 7 16 1 0
BITMAP
28
00
74
08
00
7C
84
82
82
82
82
82
82
82
84
78
ENDCHAR
STARTCHAR 1E4F
ENCODING 7759
SWIDTH 466 0
DWIDTH 7 0
BBX 5 13 1 0
BITMAP
50
40
B0
00
00
70
88
88
88
88
88
88
70
ENDCHAR
STARTCHAR 1E50
ENCODING 7760
SWIDTH 600 0
DWIDTH 9 0
BBX 7 16 1 0
BITMAP
20
10
38
00
00
7C
84
82
82
82
82
82
82
82
84
78
ENDCHAR
STARTCHAR 1E51
ENCODING 7761
SWIDTH 466 0
DWIDTH 7 0
BBX 5 14 1 0
BITMAP
40
20
00
70
00
00
70
88
88
88
88
88
88
70
ENDCHAR
STARTCHAR 1E52
ENCODING 7762
SWIDTH 600 0
DWIDTH 9 0
BBX 7 16 1 0
BITMAP
08
10
38
00
00
7C
84
82
82
82
82
82
82
82
84
78
ENDCHAR
STARTCHAR 1E53
ENCODING 7763
SWIDTH 466 0
DWIDTH 7 0
BBX 5 14 1 0
BITMAP
10
20
00
70
00
00
70
88
88
88
88
88
88
70
ENDCHAR
STARTCHAR 1E5A
ENCODING 7770
SWIDTH 533 0
DWIDTH 8 0
BBX 7 13 1 -2
BITMAP
F8
84
84
84
84
F8
90
88
88
84
82
00
10
ENDCHAR
STARTCHAR 1E5B
ENCODING 7771
SWIDTH 266 0
DWIDTH 4 0
BBX 3 10 1 -2
BITMAP
E0
80
80
80
80
80
80
80
00
80
ENDCHAR
STARTCHAR 1E5E
ENCODING 7774
SWIDTH 533 0
DWIDTH 8 0
BBX 7 13 1 -2
BITMAP
F8
84
84
84
84
F8
90
88
88
84
82
00
38
ENDCHAR
STARTCHAR 1E5F
ENCODING 7775
SWIDTH 266 0
DWIDTH 4 0
BBX 4 10 0 -2
BITMAP
70
40
40
40
40
40
40
40
00
E0
ENDCHAR
STARTCHAR 1E60
ENCODING 7776
SWIDTH 466 0
DWIDTH 7 0
BBX 5 14 1 0
BITMAP
20
00
00
F8
80
80
80
80
70
08
08
08
08
F0
ENDCHAR
STARTCHAR 1E61
ENCODING 7777
SWIDTH 333 0
DWIDTH 5 0
BBX 4 11 1 0
BITMAP
40
00
00
F0
80
80
C0
30
10
10
E0
ENDCHAR
STARTCHAR 1E62
ENCODING 7778
SWIDTH 466 0
DWIDTH 7 0
BBX 5 13 1 -2
BITMAP
F8
80
80
80
80
70
08
08
08
08
F0
00
20
ENDCHAR
STARTCHAR 1E63
ENCODING 7779
SWIDTH 333 0
DWIDTH 5 0
BBX 4 10 1 -2
BITMAP
F0
80
80
C0
30
10
10
E0
00
40
ENDCHAR
STARTCHAR 1E64
ENCODING 7780
SWIDTH 466 0
DWIDTH 7 0
BBX 5 15 1 0
BITMAP
50
20
20
00
F8
80
80
80
80
70
08
08
08
08
F0
ENDCHAR
STARTCHAR 1E65
ENCODING 7781
SWIDTH 333 0
DWIDTH 5 0
BBX 4 13 1 0
BITMAP
40
20
20
40
00
F0
80
80
C0
30
10
10
E0
ENDCHAR
STARTCHAR 1E66
ENCODING 7782
SWIDTH 466 0
DWIDTH 7 0
BBX 5 15 1 0
BITMAP
20
50
20
00
F8
80
80
80
80
70
08
08
08
08
F0
ENDCHAR
STARTCHAR 1E67
ENCODING 7783
SWIDTH 333 0
DWIDTH 5 0
BBX 4 13 1 0
BITMAP
40
A0
60
40
00
F0
80
80
C0
30
10
10
E0
ENDCHAR
STARTCHAR 1E68
ENCODING 7784
SWIDTH 466 0
DWIDTH 7 0
BBX 5 16 1 -2
BITMAP
20
00
00
F8
80
80
80
80
70
08
08
08
08
F0
00
20
ENDCHAR
STARTCHAR 1E69
ENCODING 7785
SWIDTH 333 0
DWIDTH 5 0
BBX 4 13 1 -2
BITMAP
40
00
00
F0
80
80
C0
30
10
10
E0
00
40
ENDCHAR
STARTCHAR 1E6C
ENCODING 7788
SWIDTH 466 0
DWIDTH 7 0
BBX 7 13 0 -2
BITMAP
FE
10
10
10
10
10
10
10
10
10
10
00
10
ENDCHAR
STARTCHAR 1E6D
ENCODING 7789
SWIDTH 266 0
DWIDTH 4 0
BBX 4 13 0 -2
BITMAP
40
40
40
F0
40
40
40
40
40
40
30
00
20
ENDCHAR
STARTCHAR 1E6E
ENCODING 7790
SWIDTH 466 0
DWIDTH 7 0
BBX 7 13 0 -2
BITMAP
FE
10
10
10
10
10
10
10
10
10
10
00
38
ENDCHAR
STARTCHAR 1E6F
ENCODING 7791
SWIDTH 266 0
DWIDTH 4 0
BBX 5 13 0 -2
BITMAP
40
40
40
F0
40
40
40
40
40
40
30
00
78
ENDCHAR
STARTCHAR 1E78
ENCODING 7800
SWIDTH 600 0
DWIDTH 9 0
BBX 7 16 1 0
BITMAP
08
10
34
08
00
82
82
82
82
82
82
82
82
82
82
7C
ENDCHAR
STARTCHAR 1E79
ENCODING 7801
SWIDTH 466 0
DWIDTH 7 0
BBX 5 14 1 0
BITMAP
10
20
40
B0
00
00
88
88
88
88
88
88
88
F8
ENDCHAR
STARTCHAR 1E7A
ENCODING 7802
SWIDTH 600 0
DWIDTH 9 0
BBX 7 16 1 0
BITMAP
28
00
38
00
00
82
82
82
82
82
82
82
82
82
82
7C
ENDCHAR
STARTCHAR 1E7B
ENCODING 7803
SWIDTH 466 0
DWIDTH 7 0
BBX 5 13 1 0
BITMAP
50
00
70
00
00
88
88
88
88
88
88
88
F8
ENDCHAR
STARTCHAR 1E80
ENCODING 7808
SWIDTH 866 0
DWIDTH 13 0
BBX 13 14 0 0
BITMAP
0400
0200
0000
8208
4208
4510
4510
4510
2490
28A0
28A0
28A0
1040
1040
ENDCHAR
STARTCHAR 1E81
ENCODING 7809
SWIDTH 733 0
DWIDTH 11 0
BBX 10 12 0 0
BITMAP
0800
0800
0400
0000
8440
4C40
4A40
4A40
4A80
3180
3180
2100
ENDCHAR
STARTCHAR 1E82
ENCODING 7810
SWIDTH 866 0
DWIDTH 13 0
BBX 13 14 0 0
BITMAP
0100
0200
0000
8208
4208
4510
4510
4510
2490
28A0
28A0
28A0
1040
1040
ENDCHAR
STARTCHAR 1E83
ENCODING 7811
SWIDTH 733 0
DWIDTH 11 0
BBX 10 12 0 0
BITMAP
0200
0400
0400
0000
8440
4C40
4A40
4A40
4A80
3180
3180
2100
ENDCHAR
STARTCHAR 1E84
ENCODING 7812
SWIDTH 866 0
DWIDTH 13 0
BBX 13 14 0 0
BITMAP
0500
0000
0000
8208
4208
4510
4510
4510
2490
28A0
28A0
28A0
1040
1040
ENDCHAR
STARTCHAR 1E85
ENCODING 7813
SWIDTH 733 0
DWIDTH 11 0
BBX 10 11 0 0
BITMAP
0A00
0000
0000
8440
4C40
4A40
4A40
4A80
3180
3180
2100
ENDCHAR
STARTCHAR 1E8E
ENCODING 7822
SWIDTH 466 0
DWIDTH 7 0
BBX 7 14 0 0
BITMAP
10
00
00
82
42
44
24
28
10
10
10
10
10
10
ENDCHAR
STARTCHAR 1E8F
ENCODING 7823
SWIDTH 400 0
DWIDTH 6 0
BBX 6 14 0 -3
BITMAP
10
00
00
84
84
44
48
48
28
30
10
10
20
20
ENDCHAR
STARTCHAR 1E92
ENCODING 7826
SWIDTH 466 0
DWIDTH 7 0
BBX 7 13 0 -2
BITMAP
FE
04
04
08
08
10
20
20
40
40
FE
00
10
ENDCHAR
STARTCHAR 1E93
ENCODING 7827
SWIDTH 400 0
DWIDTH 6 0
BBX 5 10 0 -2
BITMAP
F8
08
10
10
20
40
40
F8
00
20
ENDCHAR
STARTCHAR 1E97
ENCODING 7831
SWIDTH 266 0
DWIDTH 4 0
BBX 4 13 0 0
BITMAP
A0
00
40
40
40
F0
40
40
40
40
40
40
30
ENDCHAR
STARTCHAR 1E9E
ENCODING 7838
SWIDTH 600 0
DWIDTH 9 0
BBX 7 11 1 0
BITMAP
7C
84
88
88
90
BC
82
82
82
82
BC
ENDCHAR
STARTCHAR 1EA0
ENCODING 7840
SWIDTH 533 0
DWIDTH 8 0
BBX 8 13 0 -2
BITMAP
08
18
14
24
24
22
7E
42
41
81
81
00
08
ENDCHAR
STARTCHAR 1EA1
ENCODING 7841
SWIDTH 400 0
DWIDTH 6 0
BBX 4 10 1 -2
BITMAP
F0
10
10
30
D0
90
90
F0
00
20
ENDCHAR
STARTCHAR 1EA2
ENCODING 7842
SWIDTH 533 0
DWIDTH 8 0
BBX 8 14 0 0
BITMAP
1C
08
00
08
18
14
24
24
22
7E
42
41
81
81
ENDCHAR
STARTCHAR 1EA3
ENCODING 7843
SWIDTH 400 0
DWIDTH 6 0
BBX 4 12 1 0
BITMAP
70
20
20
00
F0
10
10
30
D0
90
90
F0
ENDCHAR
STARTCHAR 1EA4
ENCODING 7844
SWIDTH 533 0
DWIDTH 8 0
BBX 8 15 0 0
BITMAP
02
1C
34
00
08
18
14
24
24
22
7E
42
41
81
81
ENDCHAR
STARTCHAR 1EA5
ENCODING 7845
SWIDTH 400 0
DWIDTH 6 0
BBX 5 14 1 0
BITMAP
08
10
20
50
90
00
F0
08
08
30
C8
88
88
F8
ENDCHAR
STARTCHAR 1EA6
ENCODING 7846
SWIDTH 533 0
DWIDTH 8 0
BBX 8 15 0 0
BITMAP
04
1A
14
00
08
18
14
24
24
22
7E
42
41
81
81
ENDCHAR
STARTCHAR 1EA7
ENCODING 7847
SWIDTH 400 0
DWIDTH 6 0
BBX 4 14 1 0
BITMAP
30
10
20
50
90
00
F0
10
10
30
D0
90
90
F0
ENDCHAR
STARTCHAR 1EA8
ENCODING 7848
SWIDTH 533 0
DWIDTH 8 0
BBX 8 15 0 0
BITMAP
06
1C
34
00
08
18
14
24
24
22
7E
42
41
81
81
ENDCHAR
STARTCHAR 1EA9
ENCODING 7849
SWIDTH 400 0
DWIDTH 6 0
BBX 5 14 1 0
BITMAP
38
08
20
50
90
00
F0
08
08
30
C8
88
88
F8
ENDCHAR
STARTCHAR 1EAA
ENCODING 7850
SWIDTH 533 0
DWIDTH 8 0
BBX 8 16 0 0
BITMAP
10
2C
18
34
00
08
18
14
24
24
22
7E
42
41
81
81
ENDCHAR
STARTCHAR 1EAB
ENCODING 7851
SWIDTH 400 0
DWIDTH 6 0
BBX 4 14 1 0
BITMAP
D0
20
20
50
90
00
F0
10
10
30
D0
90
90
F0
ENDCHAR
STARTCHAR 1EAC
ENCODING 7852
SWIDTH 533 0
DWIDTH 8 0
BBX 8 16 0 -2
BITMAP
18
34
00
08
18
14
24
24
22
7E
42
41
81
81
00
08
ENDCHAR
STARTCHAR 1EAD
ENCODING 7853
SWIDTH 400 0
DWIDTH 6 0
BBX 4 14 1 -2
BITMAP
20
50
90
00
F0
10
10
30
D0
90
90
F0
00
20
ENDCHAR
STARTCHAR 1EAE
ENCODING 7854
SWIDTH 533 0
DWIDTH 8 0
BBX 8 16 0 0
BITMAP
04
08
24
18
00
08
18
14
24
24
22
7E
42
41
81
81
ENDCHAR
STARTCHAR 1EAF
ENCODING 7855
SWIDTH 400 0
DWIDTH 6 0
BBX 4 14 1 0
BITMAP
20
20
90
90
60
00
F0
10
10
30
D0
90
90
F0
ENDCHAR
STARTCHAR 1EB0
ENCODING 7856
SWIDTH 533 0
DWIDTH 8 0
BBX 8 16 0 0
BITMAP
10
10
24
18
00
08
18
14
24
24
22
7E
42
41
81
81
ENDCHAR
STARTCHAR 1EB1
ENCODING 7857
SWIDTH 400 0
DWIDTH 6 0
BBX 4 14 1 0
BITMAP
40
40
90
90
60
00
F0
10
10
30
D0
90
90
F0
ENDCHAR
STARTCHAR 1EB2
ENCODING 7858
SWIDTH 533 0
DWIDTH 8 0
BBX 8 16 0 0
BITMAP
1C
08
24
18
00
08
18
14
24
24
22
7E
42
41
81
81
ENDCHAR
STARTCHAR 1EB3
ENCODING 7859
SWIDTH 400 0
DWIDTH 6 0
BBX 4 14 1 0
BITMAP
70
20
90
90
60
00
F0
10
10
30
D0
90
90
F0
ENDCHAR
STARTCHAR 1EB4
ENCODING 7860
SWIDTH 533 0
DWIDTH 8 0
BBX 8 16 0 0
BITMAP
10
2C
24
18
00
08
18
14
24
24
22
7E
42
41
81
81
ENDCHAR
STARTCHAR 1EB5
ENCODING 7861
SWIDTH 400 0
DWIDTH 6 0
BBX 4 14 1 0
BITMAP
D0
20
90
90
60
00
F0
10
10
30
D0
90
90
F0
ENDCHAR
STARTCHAR 1EB6
ENCODING 7862
SWIDTH 533 0
DWIDTH 8 0
BBX 8 16 0 -2
BITMAP
24
18
00
08
18
14
24
24
22
7E
42
41
81
81
00
08
ENDCHAR
STARTCHAR 1EB7
ENCODING 7863
SWIDTH 400 0
DWIDTH 6 0
BBX 4 14 1 -2
BITMAP
90
90
60
00
F0
10
10
30
D0
90
90
F0
00
20
ENDCHAR
STARTCHAR 1EB8
ENCODING 7864
SWIDTH 466 0
DWIDTH 7 0
BBX 6 13 1 -2
BITMAP
FC
80
80
80
80
F8
80
80
80
80
FC
00
10
ENDCHAR
STARTCHAR 1EB9
ENCODING 7865
SWIDTH 400 0
DWIDTH 6 0
BBX 5 10 1 -2
BITMAP
F0
88
88
F8
80
80
80
78
00
20
ENDCHAR
STARTCHAR 1EBA
ENCODING 7866
SWIDTH 466 0
DWIDTH 7 0
BBX 6 14 1 0
BITMAP
78
10
00
FC
80
80
80
80
F8
80
80
80
80
FC
ENDCHAR
STARTCHAR 1EBB
ENCODING 7867
SWIDTH 400 0
DWIDTH 6 0
BBX 5 12 1 0
BITMAP
70
20
20
00
F0
88
88
F8
80
80
80
78
ENDCHAR
STARTCHAR 1EBC
ENCODING 7868
SWIDTH 466 0
DWIDTH 7 0
BBX 6 14 1 0
BITMAP
74
08
00
FC
80
80
80
80
F8
80
80
80
80
FC
ENDCHAR
STARTCHAR 1EBD
ENCODING 7869
SWIDTH 400 0
DWIDTH 6 0
BBX 5 11 1 0
BITMAP
F0
00
00
F0
88
88
F8
80
80
80
78
ENDCHAR
STARTCHAR 1EBE
ENCODING 7870
SWIDTH 466 0
DWIDTH 7 0
BBX 6 15 1 0
BITMAP
04
38
48
00
FC
80
80
80
80
F8
80
80
80
80
FC
ENDCHAR
STARTCHAR 1EBF
ENCODING 7871
SWIDTH 400 0
DWIDTH 6 0
BBX 5 14 1 0
BITMAP
08
08
20
50
90
00
F0
88
88
F8
80
80
80
78
ENDCHAR
STARTCHAR 1EC0
ENCODING 7872
SWIDTH 466 0
DWIDTH 7 0
BBX 6 15 1 0
BITMAP
08
38
28
00
FC
80
80
80
80
F8
80
80
80
80
FC
ENDCHAR
STARTCHAR 1EC1
ENCODING 7873
SWIDTH 400 0
DWIDTH 6 0
BBX 5 14 1 0
BITMAP
10
10
20
50
90
00
F0
88
88
F8
80
80
80
78
ENDCHAR
STARTCHAR 1EC2
ENCODING 7874
SWIDTH 466 0
DWIDTH 7 0
BBX 6 15 1 0
BITMAP
1C
38
48
00
FC
80
80
80
80
F8
80
80
80
80
FC
ENDCHAR
STARTCHAR 1EC3
ENCODING 7875
SWIDTH 400 0
DWIDTH 6 0
BBX 5 14 1 0
BITMAP
38
08
20
50
90
00
F0
88
88
F8
80
80
80
78
ENDCHAR
STARTCHAR 1EC4
ENCODING 7876
SWIDTH 466 0
DWIDTH 7 0
BBX 6 16 1 0
BITMAP
20
58
30
48
00
FC
80
80
80
80
F8
80
80
80
80
FC
ENDCHAR
STARTCHAR 1EC5
ENCODING 7877
SWIDTH 400 0
DWIDTH 6 0
BBX 5 14 1 0
BITMAP
48
B0
20
50
90
00
F0
88
88
F8
80
80
80
78
ENDCHAR
STARTCHAR 1EC6
ENCODING 7878
SWIDTH 466 0
DWIDTH 7 0
BBX 6 16 1 -2
BITMAP
30
48
00
FC
80
80
80
80
F8
80
80
80
80
FC
00
10
ENDCHAR
STARTCHAR 1EC7
ENCODING 7879
SWIDTH 400 0
DWIDTH 6 0
BBX 5 14 1 -2
BITMAP
20
50
90
00
F0
88
88
F8
80
80
80
78
00
20
ENDCHAR
STARTCHAR 1EC8
ENCODING 7880
SWIDTH 200 0
DWIDTH 3 0
BBX 3 14 0 0
BITMAP
E0
40
00
40
40
40
40
40
40
40
40
40
40
40
ENDCHAR
STARTCHAR 1EC9
ENCODING 7881
SWIDTH 200 0
DWIDTH 3 0
BBX 3 12 0 0
BITMAP
E0
40
40
00
40
40
40
40
40
40
40
40
ENDCHAR
STARTCHAR 1ECA
ENCODING 7882
SWIDTH 200 0
DWIDTH 3 0
BBX 1 13 1 -2
BITMAP
80
80
80
80
80
80
80
80
80
80
80
00
80
ENDCHAR
STARTCHAR 1ECB
ENCODING 7883
SWIDTH 200 0
DWIDTH 3 0
BBX 1 13 1 -2
BITMAP
80
00
00
80
80
80
80
80
80
80
80
00
80
ENDCHAR
STARTCHAR 1ECC
ENCODING 7884
SWIDTH 600 0
DWIDTH 9 0
BBX 7 13 1 -2
BITMAP
7C
84
82
82
82
82
82
82
82
84
78
00
10
ENDCHAR
STARTCHAR 1ECD
ENCODING 7885
SWIDTH 466 0
DWIDTH 7 0
BBX 5 10 1 -2
BITMAP
70
88
88
88
88
88
88
70
00
20
ENDCHAR
STARTCHAR 1ECE
ENCODING 7886
SWIDTH 600 0
DWIDTH 9 0
BBX 7 14 1 0
BITMAP
38
10
00
7C
84
82
82
82
82
82
82
82
84
78
ENDCHAR
STARTCHAR 1ECF
ENCODING 7887
SWIDTH 466 0
DWIDTH 7 0
BBX 5 12 1 0
BITMAP
70
10
20
00
70
88
88
88
88
88
88
70
ENDCHAR
STARTCHAR 1ED0
ENCODING 7888
SWIDTH 600 0
DWIDTH 9 0
BBX 7 15 1 0
BITMAP
04
38
28
00
7C
84
82
82
82
82
82
82
82
84
78
ENDCHAR
STARTCHAR 1ED1
ENCODING 7889
SWIDTH 466 0
DWIDTH 7 0
BBX 5 14 1 0
BITMAP
08
08
20
50
50
00
70
88
88
88
88
88
88
70
ENDCHAR
STARTCHAR 1ED2
ENCODING 7890
SWIDTH 600 0
DWIDTH 9 0
BBX 7 15 1 0
BITMAP
08
34
28
00
7C
84
82
82
82
82
82
82
82
84
78
ENDCHAR
STARTCHAR 1ED3
ENCODING 7891
SWIDTH 466 0
DWIDTH 7 0
BBX 5 14 1 0
BITMAP
10
10
20
50
50
00
70
88
88
88
88
88
88
70
ENDCHAR
STARTCHAR 1ED4
ENCODING 7892
SWIDTH 600 0
DWIDTH 9 0
BBX 7 15 1 0
BITMAP
0C
38
28
00
7C
84
82
82
82
82
82
82
82
84
78
ENDCHAR
STARTCHAR 1ED5
ENCODING 7893
SWIDTH 466 0
DWIDTH 7 0
BBX 5 14 1 0
BITMAP
38
08
20
50
50
00
70
88
88
88
88
88
88
70
ENDCHAR
STARTCHAR 1ED6
ENCODING 7894
SWIDTH 600 0
DWIDTH 9 0
BBX 7 16 1 0
BITMAP
20
18
30
28
00
7C
84
82
82
82
82
82
82
82
84
78
ENDCHAR
STARTCHAR 1ED7
ENCODING 7895
SWIDTH 466 0
DWIDTH 7 0
BBX 5 14 1 0
BITMAP
68
10
20
50
50
00
70
88
88
88
88
88
88
70
ENDCHAR
STARTCHAR 1ED8
ENCODING 7896
SWIDTH 600 0
DWIDTH 9 0
BBX 7 16 1 -2
BITMAP
30
28
00
7C
84
82
82
82
82
82
82
82
84
78
00
10
ENDCHAR
STARTCHAR 1ED9
ENCODING 7897
SWIDTH 466 0
DWIDTH 7 0
BBX 5 14 1 -2
BITMAP
20
50
50
00
70
88
88
88
88
88
88
70
00
20
ENDCHAR
STARTCHAR 1EDA
ENCODING 7898
SWIDTH 600 0
DWIDTH 9 0
BBX 7 14 1 0
BITMAP
08
12
02
7C
84
82
82
82
82
82
82
82
84
78
ENDCHAR
STARTCHAR 1EDB
ENCODING 7899
SWIDTH 466 0
DWIDTH 7 0
BBX 5 12 1 0
BITMAP
10
20
28
08
70
88
88
88
88
88
88
70
ENDCHAR
STARTCHAR 1EDC
ENCODING 7900
SWIDTH 600 0
DWIDTH 9 0
BBX 7 14 1 0
BITMAP
20
12
02
7C
84
82
82
82
82
82
82
82
84
78
ENDCHAR
STARTCHAR 1EDD
ENCODING 7901
SWIDTH 466 0
DWIDTH 7 0
BBX 5 12 1 0
BITMAP
40
40
28
08
70
88
88
88
88
88
88
70
ENDCHAR
STARTCHAR 1EDE
ENCODING 7902
SWIDTH 600 0
DWIDTH 9 0
BBX 7 14 1 0
BITMAP
38
12
02
7C
84
82
82
82
82
82
82
82
84
78
ENDCHAR
STARTCHAR 1EDF
ENCODING 7903
SWIDTH 466 0
DWIDTH 7 0
BBX 5 12 1 0
BITMAP
70
10
28
08
70
88
88
88
88
88
88
70
ENDCHAR
STARTCHAR 1EE0
ENCODING 7904
SWIDTH 600 0
DWIDTH 9 0
BBX 7 14 1 0
BITMAP
74
0A
02
7C
84
82
82
82
82
82
82
82
84
78
ENDCHAR
STARTCHAR 1EE1
ENCODING 7905
SWIDTH 466 0
DWIDTH 7 0
BBX 5 11 1 0
BITMAP
F0
08
08
70
88
88
88
88
88
88
70
ENDCHAR
STARTCHAR 1EE2
ENCODING 7906
SWIDTH 600 0
DWIDTH 9 0
BBX 7 15 1 -2
BITMAP
02
02
7C
84
82
82
82
82
82
82
82
84
78
00
10
ENDCHAR
STARTCHAR 1EE3
ENCODING 7907
SWIDTH 466 0
DWIDTH 7 0
BBX 5 12 1 -2
BITMAP
08
08
70
88
88
88
88
88
88
70
00
20
ENDCHAR
STARTCHAR 1EE4
ENCODING 7908
SWIDTH 600 0
DWIDTH 9 0
BBX 7 13 1 -2
BITMAP
82
82
82
82
82
82
82
82
82
82
7C
00
10
ENDCHAR
STARTCHAR 1EE5
ENCODING 7909
SWIDTH 466 0
DWIDTH 7 0
BBX 5 10 1 -2
BITMAP
88
88
88
88
88
88
88
F8
00
20
ENDCHAR
STARTCHAR 1EE6
ENCODING 7910
SWIDTH 600 0
DWIDTH 9 0
BBX 7 14 1 0
BITMAP
38
10
00
82
82
82
82
82
82
82
82
82
82
7C
ENDCHAR
STARTCHAR 1EE7
ENCODING 7911
SWIDTH 466 0
DWIDTH 7 0
BBX 5 12 1 0
BITMAP
70
10
20
00
88
88
88
88
88
88
88
F8
ENDCHAR
STARTCHAR 1EE8
ENCODING 7912
SWIDTH 600 0
DWIDTH 9 0
BBX 8 14 1 0
BITMAP
08
11
01
82
82
82
82
82
82
82
82
82
82
7C
ENDCHAR
STARTCHAR 1EE9
ENCODING 7913
SWIDTH 466 0
DWIDTH 7 0
BBX 6 12 1 0
BITMAP
10
20
24
04
88
88
88
88
88
88
88
F8
ENDCHAR
STARTCHAR 1EEA
ENCODING 7914
SWIDTH 600 0
DWIDTH 9 0
BBX 8 14 1 0
BITMAP
20
11
01
82
82
82
82
82
82
82
82
82
82
7C
ENDCHAR
STARTCHAR 1EEB
ENCODING 7915
SWIDTH 466 0
DWIDTH 7 0
BBX 6 12 1 0
BITMAP
40
40
24
04
88
88
88
88
88
88
88
F8
ENDCHAR
STARTCHAR 1EEC
ENCODING 7916
SWIDTH 600 0
DWIDTH 9 0
BBX 8 14 1 0
BITMAP
38
11
01
82
82
82
82
82
82
82
82
82
82
7C
ENDCHAR
STARTCHAR 1EED
ENCODING 7917
SWIDTH 466 0
DWIDTH 7 0
BBX 6 12 1 0
BITMAP
70
10
24
04
88
88
88
88
88
88
88
F8
ENDCHAR
STARTCHAR 1EEE
ENCODING 7918
SWIDTH 600 0
DWIDTH 9 0
BBX 8 14 1 0
BITMAP
34
09
01
82
82
82
82
82
82
82
82
82
82
7C
ENDCHAR
STARTCHAR 1EEF
ENCODING 7919
SWIDTH 466 0
DWIDTH 7 0
BBX 6 11 1 0
BITMAP
F0
04
04
88
88
88
88
88
88
88
F8
ENDCHAR
STARTCHAR 1EF0
ENCODING 7920
SWIDTH 600 0
DWIDTH 9 0
BBX 8 15 1 -2
BITMAP
01
01
82
82
82
82
82
82
82
82
82
82
7C
00
10
ENDCHAR
STARTCHAR 1EF1
ENCODING 7921
SWIDTH 466 0
DWIDTH 7 0
BBX 6 12 1 -2
BITMAP
04
04
88
88
88
88
88
88
88
F8
00
20
ENDCHAR
STARTCHAR 1EF2
ENCODING 7922
SWIDTH 466 0
DWIDTH 7 0
BBX 7 14 0 0
BITMAP
20
10
00
82
42
44
24
28
10
10
10
10
10
10
ENDCHAR
STARTCHAR 1EF3
ENCODING 7923
SWIDTH 400 0
DWIDTH 6 0
BBX 6 15 0 -3
BITMAP
20
20
10
00
84
84
44
48
48
28
30
10
10
20
20
ENDCHAR
STARTCHAR 1EF4
ENCODING 7924
SWIDTH 466 0
DWIDTH 7 0
BBX 7 13 0 -2
BITMAP
82
42
44
24
28
10
10
10
10
10
10
00
10
ENDCHAR
STARTCHAR 1EF5
ENCODING 7925
SWIDTH 400 0
DWIDTH 6 0
BBX 6 11 0 -3
BITMAP
84
84
44
48
48
28
30
10
10
28
20
ENDCHAR
STARTCHAR 1EF6
ENCODING 7926
SWIDTH 466 0
DWIDTH 7 0
BBX 7 14 0 0
BITMAP
38
10
00
82
42
44
24
28
10
10
10
10
10
10
ENDCHAR
STARTCHAR 1EF7
ENCODING 7927
SWIDTH 400 0
DWIDTH 6 0
BBX 6 15 0 -3
BITMAP
38
10
10
00
84
84
44
48
48
28
30
10
10
20
20
ENDCHAR
STARTCHAR 1EF8
ENCODING 7928
SWIDTH 466 0
DWIDTH 7 0
BBX 7 14 0 0
BITMAP
34
08
00
82
42
44
24
28
10
10
10
10
10
10
ENDCHAR
STARTCHAR 1EF9
ENCODING 7929
SWIDTH 400 0
DWIDTH 6 0
BBX 6 14 0 -3
BITMAP
78
00
00
84
84
44
48
48
28
30
10
10
20
20
ENDCHAR
STARTCHAR 2007
ENCODING 8199
SWIDTH 533 0
DWIDTH 8 0
BBX 0 0 0 0
BITMAP
ENDCHAR
STARTCHAR 2008
ENCODING 8200
SWIDTH 200 0
DWIDTH 3 0
BBX 0 0 0 0
BITMAP
ENDCHAR
STARTCHAR 2009
ENCODING 8201
SWIDTH 200 0
DWIDTH 3 0
BBX 0 0 0 0
BITMAP
ENDCHAR
STARTCHAR 200A
ENCODING 8202
SWIDTH 66 0
DWIDTH 1 0
BBX 0 0 0 0
BITMAP
ENDCHAR
STARTCHAR 200B
ENCODING 8203
SWIDTH 0 0
DWIDTH 0 0
BBX 0 0 0 0
BITMAP
ENDCHAR
STARTCHAR 2010
ENCODING 8208
SWIDTH 333 0
DWIDTH 5 0
BBX 3 1 1 4
BITMAP
E0
ENDCHAR
STARTCHAR 2012
ENCODING 8210
SWIDTH 533 0
DWIDTH 8 0
BBX 5 1 1 4
BITMAP
F8
ENDCHAR
STARTCHAR 2013
ENCODING 8211
SWIDTH 400 0
DWIDTH 6 0
BBX 6 1 0 4
BITMAP
FC
ENDCHAR
STARTCHAR 2014
ENCODING 8212
SWIDTH 800 0
DWIDTH 12 0
BBX 12 1 0 4
BITMAP
FFF0
ENDCHAR
STARTCHAR 2015
ENCODING 8213
SWIDTH 800 0
DWIDTH 12 0
BBX 12 1 0 4
BITMAP
FFF0
ENDCHAR
STARTCHAR 2018
ENCODING 8216
SWIDTH 200 0
DWIDTH 3 0
BBX 1 3 1 9
BITMAP
80
80
80
ENDCHAR
STARTCHAR 2019
ENCODING 8217
SWIDTH 200 0
DWIDTH 3 0
BBX 1 3 1 9
BITMAP
80
80
80
ENDCHAR
STARTCHAR 201A
ENCODING 8218
SWIDTH 200 0
DWIDTH 3 0
BBX 1 3 1 -2
BITMAP
80
80
80
ENDCHAR
STARTCHAR 201C
ENCODING 8220
SWIDTH 333 0
DWIDTH 5 0
BBX 3 3 1 9
BITMAP
A0
A0
A0
ENDCHAR
STARTCHAR 201D
ENCODING 8221
SWIDTH 333 0
DWIDTH 5 0
BBX 3 3 1 9
BITMAP
A0
A0
A0
ENDCHAR
STARTCHAR 201E
ENCODING 8222
SWIDTH 333 0
DWIDTH 5 0
BBX 3 3 1 -2
BITMAP
A0
A0
A0
ENDCHAR
STARTCHAR 2020
ENCODING 8224
SWIDTH 466 0
DWIDTH 7 0
BBX 5 11 1 1
BITMAP
20
20
F8
20
20
20
20
20
20
20
20
ENDCHAR
STARTCHAR 2021
ENCODING 8225
SWIDTH 466 0
DWIDTH 7 0
BBX 5 11 1 1
BITMAP
20
20
F8
20
20
20
20
20
F8
20
20
ENDCHAR
STARTCHAR 2022
ENCODING 8226
SWIDTH 333 0
DWIDTH 5 0
BBX 3 3 1 3
BITMAP
40
E0
E0
ENDCHAR
STARTCHAR 2026
ENCODING 8230
SWIDTH 533 0
DWIDTH 8 0
BBX 6 1 1 0
BITMAP
A4
ENDCHAR
STARTCHAR 2030
ENCODING 8240
SWIDTH 1133 0
DWIDTH 17 0
BBX 15 11 1 0
BITMAP
E200
9200
9400
9400
958C
9A52
6A62
0C62
1262
1252
139C
ENDCHAR
STARTCHAR 2032
ENCODING 8242
SWIDTH 200 0
DWIDTH 3 0
BBX 1 5 1 7
BITMAP
80
80
80
80
80
ENDCHAR
STARTCHAR 2033
ENCODING 8243
SWIDTH 266 0
DWIDTH 4 0
BBX 2 5 1 7
BITMAP
C0
C0
C0
C0
C0
ENDCHAR
STARTCHAR 2039
ENCODING 8249
SWIDTH 200 0
DWIDTH 3 0
BBX 2 6 1 1
BITMAP
40
80
80
80
80
40
ENDCHAR
STARTCHAR 203A
ENCODING 8250
SWIDTH 200 0
DWIDTH 3 0
BBX 1 6 1 1
BITMAP
80
80
80
80
80
80
ENDCHAR
STARTCHAR 2044
ENCODING 8260
SWIDTH 66 0
DWIDTH 1 0
BBX 6 13 -2 -1
BITMAP
04
08
08
10
10
10
20
20
40
40
40
80
80
ENDCHAR
STARTCHAR 2070
ENCODING 8304
SWIDTH 333 0
DWIDTH 5 0
BBX 4 7 1 5
BITMAP
E0
90
90
90
90
90
E0
ENDCHAR
STARTCHAR 2074
ENCODING 8308
SWIDTH 333 0
DWIDTH 5 0
BBX 5 7 0 5
BITMAP
20
20
50
50
90
78
10
ENDCHAR
STARTCHAR 2075
ENCODING 8309
SWIDTH 333 0
DWIDTH 5 0
BBX 4 7 1 5
BITMAP
E0
80
80
E0
10
10
E0
ENDCHAR
STARTCHAR 2076
ENCODING 8310
SWIDTH 333 0
DWIDTH 5 0
BBX 4 7 1 5
BITMAP
E0
80
80
E0
90
90
F0
ENDCHAR
STARTCHAR 2077
ENCODING 8311
SWIDTH 333 0
DWIDTH 5 0
BBX 4 7 0 5
BITMAP
F0
10
10
20
20
20
40
ENDCHAR
STARTCHAR 2078
ENCODING 8312
SWIDTH 333 0
DWIDTH 5 0
BBX 5 7 0 5
BITMAP
70
88
48
70
88
88
F8
ENDCHAR
STARTCHAR 2079
ENCODING 8313
SWIDTH 333 0
DWIDTH 5 0
BBX 4 7 0 5
BITMAP
70
90
90
70
10
10
70
ENDCHAR
STARTCHAR 2080
ENCODING 8320
SWIDTH 333 0
DWIDTH 5 0
BBX 4 8 1 -1
BITMAP
40
A0
90
90
90
90
90
E0
ENDCHAR
STARTCHAR 2081
ENCODING 8321
SWIDTH 333 0
DWIDTH 5 0
BBX 4 8 1 -1
BITMAP
40
C0
40
40
40
40
40
F0
ENDCHAR
STARTCHAR 2082
ENCODING 8322
SWIDTH 333 0
DWIDTH 5 0
BBX 3 8 1 -1
BITMAP
C0
20
20
20
20
40
80
E0
ENDCHAR
STARTCHAR 2083
ENCODING 8323
SWIDTH 333 0
DWIDTH 5 0
BBX 3 8 1 -1
BITMAP
C0
20
20
20
E0
20
20
E0
ENDCHAR
STARTCHAR 2084
ENCODING 8324
SWIDTH 333 0
DWIDTH 5 0
BBX 5 7 0 -1
BITMAP
20
20
50
50
F8
10
10
ENDCHAR
STARTCHAR 2085
ENCODING 8325
SWIDTH 333 0
DWIDTH 5 0
BBX 4 7 1 -1
BITMAP
E0
80
80
60
10
10
E0
ENDCHAR
STARTCHAR 2086
ENCODING 8326
SWIDTH 333 0
DWIDTH 5 0
BBX 4 8 1 -1
BITMAP
60
80
80
80
E0
90
90
E0
ENDCHAR
STARTCHAR 2087
ENCODING 8327
SWIDTH 333 0
DWIDTH 5 0
BBX 4 7 0 -1
BITMAP
F0
10
10
20
20
20
40
ENDCHAR
STARTCHAR 2088
ENCODING 8328
SWIDTH 333 0
DWIDTH 5 0
BBX 5 8 0 -1
BITMAP
30
48
88
50
70
88
88
70
ENDCHAR
STARTCHAR 2089
ENCODING 8329
SWIDTH 333 0
DWIDTH 5 0
BBX 4 8 0 -1
BITMAP
60
90
90
90
70
10
10
E0
ENDCHAR
STARTCHAR 20A1
ENCODING 8353
SWIDTH 466 0
DWIDTH 7 0
BBX 6 15 1 -2
BITMAP
14
14
6C
80
80
80
80
80
80
80
80
80
FC
A0
C0
ENDCHAR
STARTCHAR 20A3
ENCODING 8355
SWIDTH 533 0
DWIDTH 8 0
BBX 7 11 1 0
BITMAP
7E
40
40
40
7C
40
40
40
F0
40
40
ENDCHAR
STARTCHAR 20A4
ENCODING 8356
SWIDTH 533 0
DWIDTH 8 0
BBX 6 11 1 0
BITMAP
3C
40
40
40
F8
40
F8
40
40
40
FC
ENDCHAR
STARTCHAR 20A6
ENCODING 8358
SWIDTH 733 0
DWIDTH 11 0
BBX 10 11 1 0
BITMAP
4100
6100
6100
5100
C9C0
4900
C4C0
4500
4300
4300
4100
ENDCHAR
STARTCHAR 20A7
ENCODING 8359
SWIDTH 1066 0
DWIDTH 16 0
BBX 15 11 1 0
BITMAP
F900
8500
8500
87DE
8520
8520
F918
8106
8102
8102
80FC
ENDCHAR
STARTCHAR 20A9
ENCODING 8361
SWIDTH 933 0
DWIDTH 14 0
BBX 12 11 1 0
BITMAP
8210
8610
8610
8910
4920
4920
C930
50A0
30C0
30C0
2040
ENDCHAR
STARTCHAR 20AB
ENCODING 8363
SWIDTH 466 0
DWIDTH 7 0
BBX 6 14 1 -2
BITMAP
08
3C
08
08
78
88
88
88
88
88
88
78
00
F8
ENDCHAR
STARTCHAR 20AC
ENCODING 8364
SWIDTH 533 0
DWIDTH 8 0
BBX 7 11 1 0
BITMAP
3E
40
40
40
BC
80
FC
40
40
40
3E
ENDCHAR
STARTCHAR 20AD
ENCODING 8365
SWIDTH 600 0
DWIDTH 9 0
BBX 8 11 1 0
BITMAP
43
42
44
48
50
FE
48
48
44
42
41
ENDCHAR
STARTCHAR 20B1
ENCODING 8369
SWIDTH 666 0
DWIDTH 10 0
BBX 8 11 1 0
BITMAP
7C
42
C3
42
C3
42
7C
40
40
40
40
ENDCHAR
STARTCHAR 20B2
ENCODING 8370
SWIDTH 533 0
DWIDTH 8 0
BBX 6 15 1 -2
BITMAP
10
10
6C
80
80
80
80
80
84
84
84
84
6C
10
10
ENDCHAR
STARTCHAR 20B5
ENCODING 8373
SWIDTH 466 0
DWIDTH 7 0
BBX 6 15 1 -2
BITMAP
10
10
6C
80
80
80
80
80
80
80
80
80
6C
10
10
ENDCHAR
STARTCHAR 20B9
ENCODING 8377
SWIDTH 533 0
DWIDTH 8 0
BBX 6 11 1 0
BITMAP
FC
08
FC
08
08
F0
20
10
10
08
04
ENDCHAR
STARTCHAR 20BA
ENCODING 8378
SWIDTH 533 0
DWIDTH 8 0
BBX 6 11 1 0
BITMAP
40
48
70
C0
58
60
C0
40
40
40
3C
ENDCHAR
STARTCHAR 20BC
ENCODING 8380
SWIDTH 600 0
DWIDTH 9 0
BBX 7 13 1 0
BITMAP
10
10
7C
54
92
92
92
92
92
82
82
82
82
ENDCHAR
STARTCHAR 20BD
ENCODING 8381
SWIDTH 600 0
DWIDTH 9 0
BBX 7 11 1 0
BITMAP
7C
42
42
42
42
FC
40
40
F0
40
40
ENDCHAR
STARTCHAR 20BF
ENCODING 8383
SWIDTH 533 0
DWIDTH 8 0
BBX 7 15 1 -2
BITMAP
30
30
C8
84
82
84
84
F8
84
82
82
84
C8
30
30
ENDCHAR
STARTCHAR 2113
ENCODING 8467
SWIDTH 333 0
DWIDTH 5 0
BBX 5 11 0 0
BITMAP
70
50
50
50
60
40
40
C0
40
40
78
ENDCHAR
STARTCHAR 2116
ENCODING 8470
SWIDTH 1000 0
DWIDTH 15 0
BBX 14 11 1 0
BITMAP
8278
C244
C244
A244
9244
9248
8A30
8A00
8600
8600
8200
ENDCHAR
STARTCHAR 2120
ENCODING 8480
SWIDTH 866 0
DWIDTH 13 0
BBX 10 7 1 4
BITMAP
E840
8C40
8CC0
4AC0
2AC0
1B40
E840
ENDCHAR
STARTCHAR 2122
ENCODING 8482
SWIDTH 866 0
DWIDTH 13 0
BBX 12 7 0 4
BITMAP
FA10
2210
2530
2550
2550
2490
2410
ENDCHAR
STARTCHAR 2126
ENCODING 8486
SWIDTH 600 0
DWIDTH 9 0
BBX 7 11 1 0
BITMAP
7C
82
82
82
82
82
82
82
82
44
EE
ENDCHAR
STARTCHAR 212E
ENCODING 8494
SWIDTH 800 0
DWIDTH 12 0
BBX 10 11 1 0
BITMAP
3F00
4080
C080
C0C0
C0C0
FF00
C000
C000
C040
4080
3F00
ENDCHAR
STARTCHAR 2153
ENCODING 8531
SWIDTH 800 0
DWIDTH 12 0
BBX 10 13 1 -1
BITMAP
4100
C200
4200
4400
4400
4780
4840
B840
1080
1180
1040
2040
2380
ENDCHAR
STARTCHAR 2154
ENCODING 8532
SWIDTH 800 0
DWIDTH 12 0
BBX 10 13 1 -1
BITMAP
E100
2200
2200
2400
4400
8780
8840
6840
1080
1180
1040
2040
2380
ENDCHAR
STARTCHAR 215B
ENCODING 8539
SWIDTH 800 0
DWIDTH 12 0
BBX 10 13 1 -1
BITMAP
4100
C200
4200
4400
4400
4580
4A40
BA40
1240
1380
1240
2240
23C0
ENDCHAR
STARTCHAR 215C
ENCODING 8540
SWIDTH 800 0
DWIDTH 12 0
BBX 10 13 1 -1
BITMAP
E100
2200
2200
E400
1400
1580
2A40
CA40
1240
1380
1240
2240
23C0
ENDCHAR
STARTCHAR 215D
ENCODING 8541
SWIDTH 800 0
DWIDTH 12 0
BBX 10 13 1 -1
BITMAP
E100
8200
8200
E400
1400
1580
2A40
CA40
1240
1380
1240
2240
23C0
ENDCHAR
STARTCHAR 215E
ENCODING 8542
SWIDTH 800 0
DWIDTH 12 0
BBX 11 13 0 -1
BITMAP
F880
1100
1100
2200
2200
22C0
4520
0520
0920
09C0
0920
1120
11E0
ENDCHAR
STARTCHAR 2190
ENCODING 8592
SWIDTH 666 0
DWIDTH 10 0
BBX 8 7 1 2
BITMAP
10
20
40
FF
40
20
10
ENDCHAR
STARTCHAR 2191
ENCODING 8593
SWIDTH 600 0
DWIDTH 9 0
BBX 7 8 1 2
BITMAP
10
38
54
92
10
10
10
10
ENDCHAR
STARTCHAR 2192
ENCODING 8594
SWIDTH 666 0
DWIDTH 10 0
BBX 8 7 1 2
BITMAP
08
04
02
FF
02
04
08
ENDCHAR
STARTCHAR 2193
ENCODING 8595
SWIDTH 600 0
DWIDTH 9 0
BBX 7 8 1 2
BITMAP
10
10
10
10
92
54
38
10
ENDCHAR
STARTCHAR 2202
ENCODING 8706
SWIDTH 466 0
DWIDTH 7 0
BBX 6 11 0 0
BITMAP
F8
04
04
04
7C
84
84
84
84
84
78
ENDCHAR
STARTCHAR 2206
ENCODING 8710
SWIDTH 533 0
DWIDTH 8 0
BBX 8 11 0 0
BITMAP
08
18
14
24
24
22
42
42
41
81
FF
ENDCHAR
STARTCHAR 220F
ENCODING 8719
SWIDTH 600 0
DWIDTH 9 0
BBX 6 14 1 -3
BITMAP
FC
84
84
84
84
84
84
84
84
84
84
84
84
84
ENDCHAR
STARTCHAR 2211
ENCODING 8721
SWIDTH 466 0
DWIDTH 7 0
BBX 6 14 0 -3
BITMAP
FC
40
40
20
20
10
08
08
10
10
20
20
40
FC
ENDCHAR
STARTCHAR 2212
ENCODING 8722
SWIDTH 533 0
DWIDTH 8 0
BBX 6 1 1 5
BITMAP
FC
ENDCHAR
STARTCHAR 2215
ENCODING 8725
SWIDTH 200 0
DWIDTH 3 0
BBX 3 11 0 0
BITMAP
20
20
20
20
40
40
40
40
40
80
80
ENDCHAR
STARTCHAR 2219
ENCODING 8729
SWIDTH 200 0
DWIDTH 3 0
BBX 1 1 1 5
BITMAP
80
ENDCHAR
STARTCHAR 221A
ENCODING 8730
SWIDTH 600 0
DWIDTH 9 0
BBX 8 11 1 0
BITMAP
01
01
01
E2
22
22
24
14
14
18
08
ENDCHAR
STARTCHAR 221E
ENCODING 8734
SWIDTH 800 0
DWIDTH 12 0
BBX 10 5 1 3
BITMAP
F3C0
8C40
8840
8C40
7380
ENDCHAR
STARTCHAR 222B
ENCODING 8747
SWIDTH 266 0
DWIDTH 4 0
BBX 4 14 0 -3
BITMAP
70
40
40
40
40
40
40
40
20
20
20
20
20
E0
ENDCHAR
STARTCHAR 2248
ENCODING 8776
SWIDTH 533 0
DWIDTH 8 0
BBX 6 4 1 4
BITMAP
64
98
00
FC
ENDCHAR
STARTCHAR 2260
ENCODING 8800
SWIDTH 533 0
DWIDTH 8 0
BBX 6 5 1 3
BITMAP
EC
10
20
FC
80
ENDCHAR
STARTCHAR 2264
ENCODING 8804
SWIDTH 533 0
DWIDTH 8 0
BBX 6 8 1 0
BITMAP
1C
60
C0
30
0C
00
00
FC
ENDCHAR
STARTCHAR 2265
ENCODING 8805
SWIDTH 533 0
DWIDTH 8 0
BBX 6 8 1 0
BITMAP
C0
30
0C
30
C0
00
00
FC
ENDCHAR
STARTCHAR 25CA
ENCODING 9674
SWIDTH 533 0
DWIDTH 8 0
BBX 6 11 1 0
BITMAP
20
50
48
48
88
84
88
48
50
50
20
ENDCHAR
STARTCHAR FB01
ENCODING 64257
SWIDTH 466 0
DWIDTH 7 0
BBX 6 12 0 0
BITMAP
38
44
40
40
F4
44
44
44
44
44
44
44
ENDCHAR
STARTCHAR FB02
ENCODING 64258
SWIDTH 466 0
DWIDTH 7 0
BBX 6 12 0 0
BITMAP
3C
44
44
44
F4
44
44
44
44
44
44
44
ENDCHAR
ENDFONT
